<?xml version="1.0" standalone="no"?>
<!DOCTYPE svg PUBLIC "-//W3C//DTD SVG 20010904//EN"
 "http://www.w3.org/TR/2001/REC-SVG-20010904/DTD/svg10.dtd">
<svg version="1.0" xmlns="http://www.w3.org/2000/svg"
 width="3161.000000pt" height="3161.000000pt" viewBox="0 0 3161.000000 3161.000000"
 preserveAspectRatio="xMidYMid meet">

<g transform="translate(0.000000,3161.000000) scale(0.100000,-0.100000)"
fill="#142E54" stroke="none">
<path d="M15335 31604 c-639 -27 -1035 -59 -1545 -125 -2594 -334 -5062 -1303
-7189 -2822 -722 -516 -1317 -1022 -1967 -1671 -462 -462 -764 -798 -1143
-1271 -1908 -2380 -3094 -5254 -3405 -8255 -63 -609 -81 -964 -80 -1645 0
-653 17 -1020 75 -1585 309 -3048 1492 -5940 3406 -8325 573 -714 1263 -1430
1958 -2031 1678 -1452 3665 -2548 5781 -3189 1138 -345 2295 -557 3484 -639
417 -29 785 -39 1265 -33 560 7 922 27 1415 77 2222 229 4353 914 6278 2017
1923 1102 3589 2594 4884 4373 1771 2432 2807 5268 3013 8240 29 421 38 785
32 1270 -6 471 -12 609 -42 1015 -164 2180 -803 4363 -1843 6295 -609 1133
-1327 2149 -2212 3135 -190 211 -829 851 -1049 1050 -1641 1482 -3530 2595
-5596 3295 -1369 463 -2717 722 -4230 810 -175 11 -1130 21 -1290 14z m1645
-2140 c129 -38 240 -126 289 -228 34 -73 47 -170 33 -252 -17 -103 -78 -219
-151 -286 -84 -78 -136 -101 -246 -106 -295 -13 -515 169 -515 425 0 209 139
409 319 460 57 16 195 10 271 -13z m2188 -842 c146 -46 248 -171 271 -332 25
-186 -57 -344 -208 -400 -46 -18 -73 -21 -156 -18 -126 4 -200 34 -274 112
-59 64 -86 114 -107 203 -36 155 17 314 131 393 87 60 229 77 343 42z m-2882
-673 c109 -41 196 -133 236 -249 31 -89 31 -247 0 -336 l-21 -60 30 -95 c76
-232 104 -451 96 -733 -6 -223 -31 -399 -88 -627 -74 -296 -156 -518 -377
-1019 -206 -467 -280 -657 -348 -885 -32 -106 -35 -127 -29 -190 30 -321 173
-637 388 -861 l82 -84 115 92 c278 224 546 517 748 819 167 250 347 616 343
696 -2 49 25 118 57 147 23 20 53 108 101 301 58 232 86 424 101 699 6 100 13
189 16 198 3 11 -12 32 -44 62 -202 189 -163 574 74 737 158 108 407 96 543
-27 141 -126 174 -381 75 -575 -34 -68 -107 -145 -172 -181 -37 -21 -51 -35
-48 -47 14 -51 15 -92 6 -240 -11 -193 -33 -370 -64 -533 l-22 -116 76 38
c378 190 759 472 980 725 211 241 344 474 445 779 l43 129 -19 44 c-89 208 -7
450 188 556 112 60 273 82 382 51 197 -55 339 -287 309 -506 -29 -210 -240
-377 -479 -378 l-45 0 -18 -57 c-33 -106 -107 -277 -169 -392 -307 -568 -847
-1022 -1702 -1432 l-140 -67 -44 -113 c-90 -235 -238 -520 -390 -749 -42 -63
-106 -171 -142 -240 -114 -218 -259 -440 -422 -642 l-85 -106 61 -50 c324
-265 600 -741 691 -1194 90 -442 46 -799 -143 -1183 -310 -627 -824 -1012
-1501 -1124 -268 -44 -547 -50 -755 -16 -483 79 -935 396 -1219 855 -216 348
-322 698 -333 1095 -7 231 13 365 82 572 88 265 268 571 446 758 l38 40 -112
64 c-396 225 -727 514 -992 867 -96 128 -83 119 -515 344 -729 380 -1010 593
-1241 938 -66 99 -151 262 -165 316 -7 28 -31 46 -61 46 -34 0 -123 49 -172
95 -199 186 -209 480 -23 657 98 93 214 139 360 141 98 1 145 -13 222 -65 120
-79 191 -209 198 -360 6 -120 -26 -222 -90 -294 -19 -21 -18 -23 20 -112 117
-270 354 -513 712 -726 135 -81 538 -291 545 -284 2 2 -7 40 -20 83 -56 179
-99 420 -113 619 l-7 109 -37 13 c-244 84 -322 434 -153 689 75 113 205 183
355 192 106 7 194 -14 268 -62 196 -130 227 -446 66 -665 l-45 -61 11 -160
c12 -182 45 -377 90 -528 48 -162 51 -164 71 -41 23 148 69 327 134 529 144
448 195 719 195 1036 0 247 -27 419 -100 639 -41 121 -142 340 -179 388 -14
18 -34 27 -67 32 -104 14 -194 79 -241 174 -26 52 -28 67 -28 167 1 91 5 120
24 168 68 170 225 267 413 254 188 -13 305 -131 316 -319 5 -85 -6 -144 -44
-229 l-25 -56 49 -89 c136 -246 230 -522 279 -819 13 -84 18 -166 18 -345 0
-342 -20 -446 -185 -941 -163 -490 -203 -665 -204 -889 0 -147 16 -242 60
-350 39 -96 53 -112 184 -215 166 -130 352 -289 475 -405 55 -52 114 -107 132
-124 l32 -29 86 73 c208 176 382 404 495 645 43 91 49 114 69 255 28 197 60
343 123 550 l50 165 -7 120 c-17 318 -96 607 -239 869 -71 130 -98 162 -143
171 -234 43 -332 363 -182 595 76 118 199 176 358 168 108 -5 181 -37 240
-105 100 -113 116 -318 36 -460 -14 -25 -25 -49 -25 -54 0 -4 27 -56 59 -114
67 -120 119 -237 167 -374 l33 -95 21 50 c308 713 404 1058 404 1459 1 183 -8
263 -46 416 l-20 86 -73 11 c-85 11 -165 45 -219 92 -234 206 -172 650 109
781 35 17 86 34 112 39 69 12 186 2 249 -21z m-5144 -112 c31 -15 81 -52 111
-82 141 -142 186 -354 109 -519 -73 -155 -218 -245 -422 -262 -149 -13 -280
54 -368 185 -190 285 -71 606 258 696 35 9 91 14 155 12 86 -2 108 -6 157 -30z
m10745 -1426 c48 -25 94 -73 124 -131 30 -59 33 -186 5 -240 -44 -85 -108
-123 -206 -123 -113 0 -190 47 -239 144 -26 53 -31 73 -31 137 0 119 50 198
147 229 51 17 153 9 200 -16z m2177 -312 c54 -15 119 -83 135 -142 40 -140
-44 -308 -170 -346 -57 -17 -149 -15 -195 4 -101 42 -151 153 -125 276 21 97
84 170 176 206 38 15 129 16 179 2z m-14624 -576 c60 -26 107 -75 139 -143 36
-75 36 -191 2 -267 -47 -106 -138 -158 -263 -152 -95 5 -159 37 -210 104 -45
60 -63 120 -62 211 1 126 69 224 182 261 51 17 158 10 212 -14z m-2706 -374
c165 -51 302 -204 347 -389 20 -80 17 -223 -5 -290 -63 -189 -211 -290 -424
-290 -262 0 -472 185 -519 458 -12 70 -13 102 -4 166 29 209 156 338 366 370
54 8 174 -4 239 -25z m15351 -244 c268 -70 410 -395 288 -657 -72 -153 -196
-228 -379 -228 l-83 0 -38 -52 c-63 -87 -89 -130 -147 -245 -192 -383 -235
-809 -124 -1217 l22 -79 20 25 c12 14 46 55 76 92 65 81 166 169 271 238 l77
50 -34 50 c-56 83 -77 170 -72 296 3 78 11 122 27 163 76 195 224 305 426 316
161 9 284 -34 374 -133 245 -267 97 -747 -252 -818 l-62 -13 -6 -54 c-10 -94
-49 -143 -153 -196 -302 -153 -479 -465 -535 -948 -11 -86 -36 -906 -29 -927
5 -13 190 129 340 261 343 301 635 671 847 1073 121 229 190 414 321 863 140
478 210 664 325 866 l65 113 -27 65 c-86 215 3 448 209 546 93 45 162 58 272
53 113 -5 174 -34 257 -118 219 -224 185 -563 -72 -713 -58 -34 -185 -67 -260
-67 l-58 0 -36 -59 c-92 -153 -168 -357 -271 -735 -173 -631 -347 -1017 -650
-1445 -52 -73 -88 -129 -82 -125 7 4 63 43 125 87 444 314 737 633 915 995
l61 122 -13 60 c-35 167 34 330 172 405 43 23 68 30 136 33 108 6 160 -9 222
-65 68 -61 93 -130 88 -238 -7 -136 -72 -243 -182 -301 -46 -24 -56 -35 -70
-74 -28 -79 -123 -257 -192 -363 -99 -152 -185 -258 -324 -401 -308 -317 -709
-601 -1358 -961 -89 -49 -162 -93 -162 -96 0 -3 42 -14 93 -24 77 -16 145 -20
412 -23 350 -4 424 2 615 49 436 106 833 330 1110 625 36 38 139 157 229 264
337 399 531 566 757 651 l62 23 5 63 c9 116 73 209 176 257 36 17 65 21 136
21 78 -1 97 -5 141 -28 107 -55 164 -159 164 -297 0 -147 -71 -264 -185 -304
-28 -10 -66 -25 -85 -33 -19 -9 -80 -24 -135 -33 -109 -19 -193 -49 -283 -101
-90 -53 -282 -253 -442 -459 -211 -272 -426 -479 -664 -636 l-59 -39 169 -3
c93 -2 394 0 670 3 l500 7 12 81 c28 194 152 336 331 377 77 18 231 8 303 -19
124 -48 225 -152 279 -289 20 -48 23 -76 24 -182 0 -144 -12 -192 -75 -289
-73 -113 -182 -170 -341 -179 -112 -5 -177 7 -263 49 -59 29 -60 29 -95 12
-46 -22 -410 -29 -2241 -42 -1410 -11 -1393 -10 -1649 -67 -147 -33 -289 -83
-412 -145 -79 -39 -104 -57 -124 -89 -14 -22 -25 -48 -25 -57 -1 -34 -1360
-1871 -1675 -2263 -405 -504 -781 -861 -1390 -1316 -447 -335 -600 -429 -894
-549 -526 -214 -1158 -326 -2002 -355 -1099 -38 -1664 93 -2751 636 -724 362
-1197 658 -1698 1064 -225 183 -307 264 -712 705 l-377 410 -103 57 c-342 189
-724 272 -1248 271 -317 0 -399 -7 -1270 -107 -387 -45 -610 -59 -905 -59
-361 0 -670 31 -721 74 -10 8 -22 4 -46 -15 -96 -72 -276 -124 -397 -112 -143
13 -267 107 -341 259 -157 325 17 647 381 706 137 23 217 8 318 -60 93 -62
184 -203 206 -319 l6 -36 147 -17 c81 -9 201 -20 267 -23 l120 -7 -66 61 c-97
90 -216 230 -399 472 -89 118 -194 252 -232 297 -102 121 -245 253 -344 319
-81 54 -229 123 -264 124 -8 0 -21 -14 -28 -30 -27 -59 -103 -151 -163 -195
-146 -107 -354 -113 -557 -14 -332 162 -392 588 -121 862 90 91 171 129 285
135 236 12 476 -110 561 -287 l28 -58 94 -27 c256 -72 526 -254 746 -503 48
-54 161 -197 253 -317 206 -272 294 -377 408 -486 164 -158 327 -252 507 -292
l98 -22 307 33 c557 60 665 71 864 83 l197 12 -217 111 c-119 61 -280 146
-358 188 -77 42 -152 77 -165 77 -38 0 -115 43 -214 119 -49 38 -169 120 -265
182 -520 334 -956 655 -1374 1012 -162 139 -171 145 -215 145 -100 2 -173 37
-219 105 -44 64 -55 108 -50 206 3 70 10 99 35 153 59 126 168 204 300 215
190 16 318 -96 318 -277 0 -41 -4 -93 -8 -116 l-8 -41 98 -84 c188 -163 632
-513 640 -506 1 2 -23 63 -53 137 -31 74 -123 335 -204 580 -165 497 -232 674
-327 864 -111 222 -206 359 -346 504 l-91 92 -81 0 c-102 0 -166 19 -237 70
-98 70 -157 183 -165 321 -10 153 52 275 172 337 65 34 204 43 287 18 157 -45
263 -188 275 -371 l6 -80 92 -96 c167 -175 304 -374 433 -628 114 -223 184
-404 362 -936 161 -480 239 -681 337 -864 101 -191 186 -312 313 -445 80 -83
165 -139 510 -331 278 -155 1022 -516 1036 -503 1 2 -20 33 -48 68 -27 36 -75
103 -106 150 -31 47 -125 158 -209 247 -337 361 -598 706 -841 1113 -102 170
-282 522 -357 696 l-48 111 -59 6 c-249 22 -445 333 -384 608 48 214 228 355
489 383 138 15 271 -40 360 -150 175 -214 175 -492 0 -685 l-36 -40 23 -57
c50 -127 255 -528 350 -687 103 -171 279 -433 306 -456 13 -11 14 -5 7 42 -12
82 -8 461 6 574 7 55 33 218 57 363 57 339 71 514 56 659 -28 256 -117 442
-259 542 -133 93 -203 241 -203 431 0 337 250 580 574 556 266 -19 437 -197
453 -472 13 -211 -87 -425 -244 -518 l-49 -30 24 -59 c40 -99 71 -239 83 -377
15 -174 1 -366 -56 -765 -60 -419 -69 -518 -62 -725 9 -316 75 -576 217 -860
53 -106 64 -121 146 -196 224 -203 469 -394 712 -556 147 -97 184 -111 557
-213 249 -68 405 -123 719 -250 693 -280 1150 -413 1778 -519 1138 -193 2780
-211 3790 -41 875 147 1800 489 2667 985 792 453 1246 836 1559 1314 86 132
97 159 121 306 30 177 41 369 41 720 0 444 18 646 76 870 l25 96 -46 102
c-231 523 -264 1063 -94 1575 52 158 158 373 252 511 l74 108 -26 62 c-19 47
-26 84 -29 162 -5 112 11 186 54 260 29 48 107 125 152 148 87 45 239 59 347
31z m-1688 -846 c144 -70 160 -306 28 -428 -103 -95 -268 -93 -353 5 -111 125
-62 349 93 420 67 32 170 33 232 3z m5855 -131 c98 -29 171 -139 171 -258 0
-149 -88 -239 -232 -240 -91 0 -139 17 -192 70 -132 131 -95 372 66 428 41 14
139 14 187 0z m-7456 -489 c167 -79 237 -316 137 -461 -59 -86 -215 -118 -330
-68 -62 26 -135 101 -166 168 -32 68 -31 209 0 269 27 50 76 90 135 109 59 19
163 11 224 -17z m-7580 -303 c70 -18 148 -62 195 -109 119 -120 132 -337 29
-495 -71 -109 -144 -155 -255 -160 -244 -12 -429 136 -443 355 -11 168 85 342
222 404 50 23 177 25 252 5z m16140 -446 c65 -28 137 -107 165 -178 34 -85 32
-208 -2 -282 -58 -124 -184 -187 -325 -161 -112 21 -193 85 -243 191 -23 48
-26 68 -26 155 0 89 3 105 27 151 33 63 97 120 158 139 63 21 183 13 246 -15z
m-23423 -70 c219 -68 366 -281 367 -532 0 -275 -162 -473 -417 -510 -212 -31
-412 52 -523 215 -134 197 -140 463 -15 652 46 69 102 115 186 155 114 53 270
61 402 20z m8902 -311 c63 -18 118 -62 150 -121 28 -49 30 -61 30 -153 0 -89
-3 -105 -27 -150 -56 -106 -137 -155 -258 -155 -162 0 -257 91 -268 257 -14
223 167 379 373 322z m7256 -1010 c57 -20 100 -59 126 -117 63 -135 -8 -316
-142 -368 -31 -12 -66 -15 -123 -13 -70 4 -86 8 -123 34 -96 68 -124 213 -64
331 33 63 82 108 141 129 48 17 139 19 185 4z m-9656 -89 c72 -28 159 -110
193 -182 106 -228 7 -526 -211 -633 -231 -112 -488 -36 -585 173 -38 81 -44
240 -13 340 48 159 170 278 326 319 74 19 216 11 290 -17z m17247 -260 c56
-16 117 -68 151 -129 58 -103 47 -259 -25 -367 -110 -162 -370 -192 -489 -56
-56 64 -74 116 -74 217 1 77 5 99 29 153 36 78 117 155 184 176 56 17 172 20
224 6z m902 -1600 c43 -11 101 -32 129 -47 73 -39 178 -146 209 -213 90 -192
48 -409 -109 -568 -85 -86 -150 -115 -268 -120 -311 -14 -555 199 -555 483 0
203 146 415 323 470 63 20 182 18 271 -5z m-5179 -175 c209 -55 358 -251 372
-490 7 -108 -7 -182 -48 -264 -38 -77 -120 -152 -197 -182 -70 -27 -213 -36
-295 -19 -228 47 -397 273 -397 530 0 166 71 309 187 381 91 57 256 75 378 44z
m2828 -338 c25 -15 59 -44 76 -64 89 -107 86 -293 -6 -373 -48 -42 -76 -52
-153 -53 -159 -2 -272 117 -273 288 0 63 4 80 30 126 24 43 42 60 84 82 48 26
62 28 125 25 54 -4 83 -11 117 -31z m-23170 -3 c65 -22 146 -98 182 -171 23
-46 29 -75 33 -143 5 -101 -7 -151 -51 -216 -47 -70 -118 -106 -217 -112 -134
-8 -232 36 -305 135 -90 124 -97 300 -15 418 71 103 226 141 373 89z m5367
-2264 c259 -75 351 -367 191 -600 -78 -113 -185 -159 -325 -139 -94 12 -142
30 -215 78 -147 95 -193 303 -106 477 93 188 238 247 455 184z m-4639 -60
c130 -24 248 -110 311 -227 80 -146 78 -365 -5 -505 -114 -193 -376 -255 -599
-142 -209 106 -301 429 -187 657 86 170 274 255 480 217z m2572 -234 c70 -34
139 -109 168 -184 33 -85 32 -208 -2 -282 -31 -67 -73 -110 -136 -141 -39 -19
-64 -24 -133 -24 -76 0 -92 3 -152 33 -117 57 -179 159 -186 303 -6 118 14
176 83 245 66 66 120 85 226 81 59 -3 90 -10 132 -31z m10827 -2090 c992 -150
1729 -453 2385 -981 398 -321 751 -670 1027 -1015 209 -262 369 -506 668
-1020 375 -643 484 -786 701 -912 121 -70 405 -158 569 -177 160 -18 287 10
509 114 75 35 161 73 191 84 37 15 82 46 140 98 108 96 252 205 372 279 51 31
114 76 140 99 44 39 81 55 130 55 11 0 63 16 116 36 165 62 269 84 607 129
343 46 533 93 682 169 113 56 165 102 202 172 40 76 112 146 189 182 47 22 74
28 157 30 84 3 109 0 159 -19 188 -70 259 -312 154 -526 -37 -77 -117 -154
-195 -191 -52 -24 -69 -27 -173 -27 -102 0 -120 3 -160 24 -25 13 -52 29 -60
36 -13 11 -28 7 -95 -25 -168 -80 -362 -130 -690 -180 -249 -38 -394 -70 -554
-125 -168 -58 -241 -91 -260 -118 -60 -85 -234 -289 -348 -407 -75 -77 -134
-142 -131 -145 2 -2 64 -20 138 -39 528 -135 994 -363 1392 -680 l108 -86 44
34 c70 53 131 69 245 64 118 -4 184 -33 255 -108 79 -84 116 -190 116 -329 0
-126 -42 -226 -126 -300 -68 -60 -139 -84 -249 -84 -126 0 -182 23 -284 117
-114 104 -374 276 -418 276 -47 0 -86 22 -168 95 -49 44 -112 85 -208 135 -76
40 -141 70 -144 67 -3 -3 4 -21 15 -39 101 -165 207 -391 369 -788 250 -613
399 -874 630 -1103 l89 -88 34 18 c55 28 182 30 251 4 126 -48 209 -166 217
-310 6 -100 -14 -172 -65 -230 -53 -63 -119 -91 -214 -91 -125 0 -219 47 -278
138 -20 32 -66 76 -128 123 -277 211 -499 505 -702 931 -67 140 -101 222 -256
603 -205 506 -410 840 -636 1036 -132 115 -171 138 -280 170 -388 112 -646
100 -777 -34 -36 -37 -42 -51 -56 -126 -9 -46 -16 -113 -16 -150 l0 -67 136
-215 c75 -118 144 -223 154 -234 9 -11 43 -63 75 -115 46 -75 101 -140 259
-305 350 -366 562 -602 852 -951 167 -200 454 -565 472 -599 78 -153 85 -172
89 -240 4 -60 1 -77 -19 -114 -42 -79 -142 -111 -252 -80 -78 22 -166 141
-166 228 0 19 -56 96 -193 266 -105 133 -227 283 -271 334 l-79 93 -63 -122
-64 -122 12 -92 c8 -58 13 -214 13 -431 -1 -325 -7 -427 -41 -643 -5 -36 -4
-38 41 -61 57 -30 100 -79 134 -151 22 -47 26 -69 26 -150 0 -84 -3 -102 -28
-152 -51 -103 -133 -148 -272 -148 -71 0 -90 4 -143 30 -117 59 -168 148 -184
320 -9 101 -8 121 16 243 54 276 61 359 61 707 -1 353 -8 438 -65 720 -50 252
-127 494 -236 750 -46 109 -50 114 -251 346 -225 258 -217 253 -254 169 -47
-109 -52 -282 -26 -981 l16 -450 29 -79 29 -80 56 -16 c145 -43 232 -155 244
-313 13 -176 -76 -340 -225 -413 -53 -26 -66 -28 -177 -28 -107 0 -125 3 -170
25 -115 57 -177 159 -183 305 -4 76 0 101 21 164 l24 73 -27 72 c-45 117 -116
342 -154 486 -155 594 -194 1196 -115 1810 l20 155 -33 29 c-107 92 -376 309
-393 316 -11 5 -120 39 -243 75 -123 36 -388 122 -590 191 -830 284 -958 326
-1212 399 -913 263 -2284 541 -3075 624 -879 93 -1598 19 -2225 -229 -314
-124 -690 -328 -1095 -595 -218 -144 -339 -229 -780 -550 -364 -265 -573 -408
-900 -617 -331 -211 -737 -447 -947 -549 l-68 -33 -17 -76 c-25 -109 -23 -322
6 -458 45 -213 123 -411 257 -653 94 -170 146 -249 292 -446 112 -152 202
-294 282 -443 31 -58 115 -193 186 -300 72 -107 137 -207 145 -221 8 -15 34
-55 58 -89 71 -101 86 -154 86 -300 0 -122 -1 -127 -33 -192 -123 -250 -490
-280 -687 -56 -158 179 -165 472 -16 629 l43 44 -19 65 c-15 48 -42 97 -108
190 -228 323 -431 641 -558 874 -47 85 -117 190 -197 295 -69 90 -157 210
-197 268 l-72 104 -5 -43 c-3 -24 -8 -88 -11 -143 -17 -294 -120 -799 -239
-1171 -35 -107 -53 -192 -80 -369 -20 -126 -45 -282 -56 -345 l-20 -115 22
-14 c13 -8 55 -46 93 -85 180 -181 229 -442 124 -663 -38 -81 -136 -183 -219
-230 -121 -68 -304 -105 -422 -84 -234 41 -428 288 -431 551 -2 139 36 248
122 358 43 53 133 121 205 153 l43 19 31 177 c28 156 102 637 102 662 0 4 -14
11 -31 15 -28 5 -45 -4 -163 -93 -72 -54 -187 -148 -256 -208 -141 -124 -404
-391 -496 -503 l-61 -75 19 -30 c34 -55 58 -153 58 -234 0 -96 -21 -171 -67
-238 -133 -197 -468 -189 -625 15 -72 95 -92 156 -93 287 0 103 2 114 31 176
39 81 90 134 165 168 47 21 69 41 125 111 196 245 432 492 649 678 152 132
396 315 547 412 67 43 122 86 128 100 82 171 139 494 126 716 -10 165 -40 344
-57 344 -13 0 -381 -232 -644 -405 -304 -201 -518 -379 -605 -505 -21 -30 -56
-71 -77 -91 -21 -20 -59 -73 -85 -116 l-47 -80 6 -99 c10 -170 -45 -313 -163
-423 -82 -78 -144 -101 -262 -101 -239 0 -421 118 -487 315 -24 72 -22 203 5
287 43 139 153 264 270 309 61 23 187 25 275 5 33 -8 61 -11 63 -6 7 19 125
181 179 245 32 39 85 108 118 155 107 151 216 282 352 421 l134 136 -78 12
c-106 17 -258 51 -506 111 -294 72 -418 92 -572 92 -226 1 -369 -49 -530 -186
-49 -42 -93 -76 -97 -76 -4 0 -19 -24 -33 -54 -40 -84 -96 -140 -183 -183 -75
-38 -77 -38 -196 -38 -144 0 -206 20 -284 91 -102 91 -147 196 -147 344 0 148
42 249 141 339 69 63 143 92 252 99 108 6 187 -11 267 -59 35 -22 66 -39 69
-39 3 0 37 20 76 45 135 88 324 150 492 162 49 3 88 9 88 13 0 3 -12 15 -27
27 -16 11 -111 89 -213 174 -287 239 -400 319 -567 403 -223 112 -357 131
-699 100 -54 -5 -78 -2 -101 10 l-30 15 -22 -66 c-65 -197 -218 -303 -440
-303 -172 0 -271 40 -386 155 -117 117 -169 250 -168 430 2 303 196 487 498
473 152 -8 260 -54 357 -154 38 -39 110 -145 121 -177 2 -7 19 1 40 20 68 60
232 89 442 80 199 -9 363 -56 562 -162 159 -84 308 -190 628 -445 417 -333
606 -454 850 -545 165 -62 303 -87 490 -88 396 -2 716 115 1445 529 146 83
301 170 345 193 149 80 442 378 800 816 582 711 1209 1410 1754 1955 616 615
1318 1207 1881 1586 206 139 290 187 560 323 548 277 949 424 1380 506 235 45
360 54 660 51 234 -3 301 -8 450 -30z m9115 -685 c123 -61 186 -165 193 -318
7 -143 -40 -265 -132 -346 -40 -35 -141 -77 -203 -83 -238 -25 -413 137 -413
381 0 188 109 344 272 390 86 24 205 14 283 -24z m-20300 -537 c81 -20 189
-72 252 -123 64 -51 133 -154 164 -241 32 -92 33 -237 2 -335 -49 -155 -158
-287 -290 -352 -70 -35 -84 -38 -178 -41 -335 -13 -594 194 -629 503 -31 264
179 561 426 604 64 11 171 5 253 -15z m17170 -954 c218 -32 372 -203 391 -435
16 -188 -70 -351 -225 -427 -56 -28 -77 -33 -164 -36 -122 -5 -202 14 -285 68
-156 100 -239 307 -202 501 33 175 162 304 328 328 79 12 79 12 157 1z m4566
-128 c72 -38 109 -105 109 -198 0 -141 -78 -224 -210 -224 -131 0 -214 74
-227 205 -19 184 162 304 328 217z m-24139 -537 c197 -49 358 -217 415 -435
20 -79 23 -242 4 -320 -47 -196 -189 -350 -369 -402 -89 -26 -252 -27 -342 -4
-202 54 -365 225 -414 436 -21 86 -20 255 0 334 46 181 168 320 330 377 112
40 250 44 376 14z m24833 -450 c17 -7 43 -25 58 -41 52 -52 62 -81 62 -179 0
-81 -3 -95 -30 -144 -37 -68 -85 -107 -154 -128 -90 -26 -202 -2 -253 54 -34
37 -58 106 -58 170 0 111 57 215 141 259 66 33 165 38 234 9z m-19153 -38
c101 -50 169 -151 187 -278 24 -178 -54 -340 -197 -407 -51 -24 -69 -27 -162
-27 -96 0 -110 3 -164 30 -276 139 -252 594 37 697 81 29 224 21 299 -15z
m-1934 -687 c263 -61 377 -361 242 -636 -71 -145 -192 -233 -350 -256 -198
-29 -357 47 -436 207 -31 63 -37 86 -41 162 -7 110 8 182 55 276 81 162 232
255 417 256 39 0 89 -4 113 -9z m19550 -360 c164 -71 212 -307 96 -477 -65
-94 -149 -137 -274 -137 -74 -1 -93 3 -142 27 -105 52 -152 133 -152 267 0 74
4 93 31 150 47 100 123 165 220 190 60 15 162 6 221 -20z m-6273 -1373 c62
-35 98 -95 103 -171 10 -156 -74 -250 -223 -251 -59 0 -78 4 -117 27 -143 85
-126 336 27 404 50 22 163 17 210 -9z m6791 -177 c72 -35 125 -90 163 -170 23
-48 26 -68 26 -155 0 -84 -4 -107 -22 -141 -30 -56 -94 -109 -151 -125 -61
-17 -165 -15 -220 5 -106 38 -198 142 -223 250 -17 76 -8 181 20 239 63 129
251 174 407 97z m-15166 -612 c92 -43 150 -111 185 -216 13 -42 16 -77 13
-155 -3 -89 -8 -110 -36 -168 -36 -75 -110 -150 -176 -180 -59 -26 -159 -38
-229 -29 -124 18 -233 103 -278 218 -30 76 -33 232 -6 309 39 110 133 204 240
239 27 9 76 13 137 11 78 -2 105 -8 150 -29z m8661 -718 c190 -59 319 -245
319 -460 0 -177 -85 -322 -228 -388 -78 -36 -246 -43 -338 -14 -171 54 -282
192 -315 392 -20 119 15 261 86 354 35 45 117 100 180 119 74 23 219 21 296
-3z m-7824 -1045 c60 -30 117 -89 147 -154 17 -38 21 -64 21 -151 -1 -94 -3
-111 -28 -162 -35 -71 -111 -141 -178 -163 -65 -22 -175 -21 -241 1 -72 24
-147 100 -177 179 -19 51 -22 74 -19 155 4 99 20 144 74 217 78 104 271 141
401 78z m6043 -390 c101 -27 185 -108 215 -207 19 -64 19 -186 1 -254 -53
-200 -229 -327 -429 -311 -126 11 -217 69 -268 172 -72 146 -38 357 77 485 99
109 257 154 404 115z m5642 -350 c97 -49 165 -135 194 -245 43 -169 -29 -323
-169 -361 -64 -17 -183 -7 -242 22 -154 73 -244 286 -190 449 23 69 86 133
152 154 72 24 187 15 255 -19z m-2922 -846 c108 -50 170 -145 178 -275 12
-182 -79 -344 -236 -421 -73 -37 -80 -38 -182 -38 -99 0 -109 2 -173 33 -122
60 -173 160 -165 327 3 82 8 101 40 166 40 81 99 147 166 186 72 42 119 53
222 50 77 -2 106 -8 150 -28z m-10580 -910 c189 -66 351 -273 396 -505 27
-146 11 -266 -56 -401 -87 -176 -262 -297 -490 -339 -151 -27 -278 -13 -384
44 -68 36 -192 162 -239 242 -166 285 -113 639 123 825 180 141 464 199 650
134z m2043 -45 c239 -62 391 -264 374 -495 -18 -229 -174 -422 -372 -458 -124
-23 -300 19 -414 99 -129 91 -191 214 -191 379 0 230 146 437 343 487 62 16
172 11 260 -12z m6576 -157 c23 -15 53 -46 68 -69 26 -38 28 -50 28 -137 0
-106 -11 -138 -69 -199 -54 -58 -100 -77 -192 -77 -72 0 -86 3 -129 30 -118
73 -142 253 -51 383 49 71 123 103 228 99 63 -3 84 -8 117 -30z"/>
</g>
</svg>
