<?xml version="1.0" encoding="UTF-8" standalone="no"?>
<!-- Created with Inkscape (http://www.inkscape.org/) -->

<svg
   version="1.1"
   id="svg2"
   width="126.40613"
   height="126.406"
   viewBox="0 0 126.40613 126.406"
   sodipodidocname="Info.ai"
   xmlnsinkscape="http://www.inkscape.org/namespaces/inkscape"
   xmlnssodipodi="http://sodipodi.sourceforge.net/DTD/sodipodi-0.dtd"
   xmlns="http://www.w3.org/2000/svg"
   xmlnssvg="http://www.w3.org/2000/svg">
  <defs
     id="defs6">
    <clipPath
       clipPathUnits="userSpaceOnUse"
       id="clipPath16">
      <path
         d="M 0,94.805 H 94.805 V 0 H 0 Z"
         id="path14" />
    </clipPath>
  </defs>
  <sodipodiNamedview
     id="namedview4"
     pagecolor="#000000"
     bordercolor="#000000"
     borderopacity="0.25"
     inkscapeshowpageshadow="2"
     inkscapepageopacity="0.0"
     inkscapepagecheckerboard="0"
     inkscapedeskcolor="#d1d1d1" />
  <g
     id="g8"
     inkscapegroupmode="layer"
     inkscapelabel="Info"
     transform="matrix(1.3333333,0,0,-1.3333333,0,126.406)">
    <g
       id="g10">
      <g
         id="g12"
         clip-path="url(#clipPath16)">
        <g
           id="g18"
           transform="translate(47.4841,60.9311)">
          <path
             d="m 0,0 c -6.049,0 -10.055,3.352 -10.055,8.665 0,5.232 3.76,8.665 9.891,8.665 6.049,0 10.055,-3.352 10.055,-8.665 C 9.891,3.433 6.131,0 0,0 m 9.483,-35.785 c 0,-6.395 -3.516,-8.602 -8.42,-8.602 H -0.9 c -5.149,0 -8.746,1.979 -8.746,8.602 v 21.85 c 0,6.395 3.679,8.603 8.583,8.603 h 1.962 c 5.15,0 8.584,-1.979 8.584,-8.603 z M 22.8,27.975 c -22.921,12.637 -51.748,4.3 -64.385,-18.621 -12.638,-22.922 -4.301,-51.749 18.621,-64.386 22.921,-12.638 51.748,-4.301 64.386,18.621 12.637,22.922 4.3,51.748 -18.622,64.386"
             style="fill:#white;fill-opacity:1;fill-rule:nonzero;stroke:none"
             id="path20" />
        </g>
      </g>
    </g>
  </g>
</svg>
