<?xml version="1.0" encoding="UTF-8" standalone="no"?>
<!-- Created with Inkscape (http://www.inkscape.org/) -->

<svg
   version="1.1"
   id="svg2"
   width="126.40613"
   height="126.406"
   viewBox="0 0 126.40613 126.406"
   sodipodidocname="Resource collection.ai"
   xmlnsinkscape="http://www.inkscape.org/namespaces/inkscape"
   xmlnssodipodi="http://sodipodi.sourceforge.net/DTD/sodipodi-0.dtd"
   xmlns="http://www.w3.org/2000/svg"
   xmlnssvg="http://www.w3.org/2000/svg">
  <defs
     id="defs6">
    <clipPath
       clipPathUnits="userSpaceOnUse"
       id="clipPath16">
      <path
         d="M 0,94.805 H 94.805 V 0 H 0 Z"
         id="path14" />
    </clipPath>
  </defs>
  <sodipodiNamedview
     id="namedview4"
     pagecolor="#ffffff"
     bordercolor="#000000"
     borderopacity="0.25"
     inkscapeshowpageshadow="2"
     inkscapepageopacity="0.0"
     inkscapepagecheckerboard="0"
     inkscapedeskcolor="#d1d1d1" />
  <g
     id="g8"
     inkscapegroupmode="layer"
     inkscapelabel="Resource collection"
     transform="matrix(1.3333333,0,0,-1.3333333,0,126.406)">
    <g
       id="g10">
      <g
         id="g12"
         clip-path="url(#clipPath16)">
        <g
           id="g18"
           transform="translate(45.3019,23.384)">
          <path
             d="M 0,0 H 0.277 V 6.013 C 0.035,5.982 -0.203,5.967 -0.436,5.967 c -1.082,0 -2.084,0.331 -2.978,0.985 -1.414,1.034 -2.153,2.507 -2.138,4.26 0.012,1.432 0.579,2.705 1.638,3.682 0.986,0.909 2.148,1.37 3.454,1.37 0.242,0 0.491,-0.016 0.746,-0.048 v 6.042 H -1.74 l -2.234,0.001 c -1.42,0 -2.84,-0.001 -4.26,-0.005 h -0.004 c -0.363,0 -1.4,0.004 -1.877,1.032 -0.489,1.054 0.227,1.847 0.462,2.107 0.635,0.702 0.618,1.637 -0.042,2.274 -0.301,0.29 -0.696,0.449 -1.112,0.449 -0.423,0 -0.823,-0.163 -1.126,-0.46 -0.633,-0.618 -0.635,-1.592 -0.005,-2.266 0.747,-0.798 0.67,-1.552 0.474,-2.043 -0.29,-0.727 -0.914,-1.096 -1.853,-1.096 -1.455,0.007 -2.89,0.009 -4.325,0.009 l -2.252,-0.001 -2.056,-0.001 -0.001,-2.019 c -0.002,-3.028 -0.003,-6.055 0.007,-9.083 10e-4,-0.547 0.043,-1.133 0.124,-1.744 0.66,-5.003 5.23,-9.2 10.185,-9.356 1.623,-0.051 3.35,-0.074 5.6,-0.074 1.004,0 2.009,0.005 3.014,0.009 C -2.014,-0.004 -1.007,0 0,0"
             style="fill:#white;fill-opacity:1;fill-rule:nonzero;stroke:none"
             id="path20" />
        </g>
        <g
           id="g22"
           transform="translate(51.4527,59.8964)">
          <path
             d="M 0,0 C 0.167,0.706 -0.134,1.424 -0.748,1.787 -0.987,1.928 -1.262,2.002 -1.542,2.002 -1.94,2.002 -2.335,1.854 -2.655,1.585 -2.943,1.342 -3.264,1.072 -3.691,0.977 -3.836,0.944 -3.981,0.928 -4.123,0.928 c -1.011,0 -1.719,0.799 -1.721,1.944 -0.004,2.136 -0.003,4.272 -0.003,6.407 l 0.001,2.249 -2.304,10e-4 -2.988,10e-4 c -1.959,0 -3.918,-0.002 -5.877,-0.009 -0.696,-0.003 -1.286,-0.052 -1.803,-0.149 -5.538,-1.043 -9.269,-5.536 -9.282,-11.18 -0.006,-2.743 -0.004,-5.486 -0.002,-8.229 l 0.001,-2.653 h 6.038 c -0.248,2.126 0.537,3.844 2.299,5.003 0.901,0.592 1.845,0.893 2.806,0.893 0.956,0 1.895,-0.297 2.791,-0.884 1.758,-1.151 2.539,-2.871 2.287,-5.009 h 6.034 v 1.962 c 0.001,2.168 0.001,4.335 0.004,6.503 10e-4,0.397 0.002,1.454 1.049,1.934 0.245,0.112 0.493,0.169 0.739,0.169 0.633,0 1.091,-0.36 1.42,-0.675 0.291,-0.278 0.627,-0.414 1.027,-0.414 0.057,0 0.114,0.003 0.173,0.009 C -0.752,-1.135 -0.149,-0.631 0,0"
             style="fill:#white;;fill-opacity:1;fill-rule:nonzero;stroke:none"
             id="path24" />
        </g>
        <g
           id="g26"
           transform="translate(71.4619,45.6077)">
          <path
             d="m 0,0 h -6.047 c 0.253,-2.038 -0.487,-3.725 -2.171,-4.916 -0.918,-0.649 -1.897,-0.979 -2.91,-0.979 -0.88,0 -1.752,0.251 -2.591,0.746 -1.932,1.139 -2.793,2.909 -2.522,5.156 h -6.06 l -0.001,-2.213 c -0.001,-2.166 -0.001,-4.332 -0.007,-6.497 -0.003,-1.063 -0.737,-1.865 -1.706,-1.865 -0.17,0 -0.343,0.026 -0.513,0.076 -0.369,0.108 -0.645,0.342 -0.867,0.531 -0.401,0.337 -0.754,0.487 -1.117,0.487 -0.209,0 -0.431,-0.051 -0.661,-0.152 -0.665,-0.293 -0.986,-0.778 -0.982,-1.483 0.003,-0.681 0.307,-1.149 0.929,-1.429 0.249,-0.113 0.49,-0.17 0.715,-0.17 0.366,0 0.706,0.147 1.039,0.449 0.358,0.324 0.805,0.655 1.414,0.655 0.24,0 0.484,-0.054 0.725,-0.162 1.039,-0.464 1.037,-1.455 1.035,-1.931 -0.006,-2.163 -0.005,-4.326 -0.004,-6.488 v -2.042 l 2.349,-0.001 3.32,-0.002 c 1.777,0 3.552,0.002 5.329,0.011 0.832,0.005 1.537,0.065 2.157,0.184 5.367,1.032 9.127,5.577 9.145,11.051 0.008,2.454 0.006,4.908 0.004,7.362 L 0,-0.31 Z"
             style="#white;;fill-opacity:1;fill-rule:nonzero;stroke:none"
             id="path28" />
        </g>
        <g
           id="g30"
           transform="translate(76.2311,47.3664)">
          <path
             d="m 0,0 v -4.117 c -0.001,-2.819 -0.001,-5.638 0.001,-8.457 0.004,-4.435 -1.515,-8.247 -4.514,-11.331 -3.091,-3.179 -6.818,-4.803 -11.077,-4.827 -4.529,-0.026 -9.107,-0.04 -13.609,-0.04 -4.31,0 -8.668,0.013 -12.953,0.036 -7.412,0.042 -14.119,5.851 -15.269,13.225 -0.149,0.957 -0.226,1.919 -0.227,2.857 -0.014,7.686 -0.016,15.999 -0.007,25.415 0.007,8.072 5.8,14.77 13.774,15.927 0.691,0.1 1.432,0.147 2.331,0.148 5.071,0.005 10.143,0.007 15.214,0.007 3.418,0 6.834,-0.001 10.251,-0.002 7.929,-0.005 14.445,-5.455 15.846,-13.256 0.195,-1.086 0.225,-2.173 0.23,-2.999 C 0.006,9.758 0.004,6.93 0.001,4.101 L 0,1.025 Z m -5.947,41.539 c -22.921,12.638 -51.748,4.301 -64.385,-18.621 -12.638,-22.922 -4.301,-51.748 18.621,-64.386 22.921,-12.637 51.748,-4.3 64.386,18.622 12.637,22.921 4.3,51.748 -18.622,64.385"
             style="#white;;fill-opacity:1;fill-rule:nonzero;stroke:none"
             id="path32" />
        </g>
        <g
           id="g34"
           transform="translate(71.2118,62.5447)">
          <path
             d="m 0,0 c -1.141,5.272 -5.528,8.839 -10.916,8.875 -1.454,0.01 -2.907,0.013 -4.36,0.013 -1.235,0 -2.47,-0.002 -3.704,-0.004 L -22.025,8.88 V 2.855 c 0.268,0.034 0.529,0.051 0.783,0.051 1.663,0 3.031,-0.706 4.067,-2.097 1.267,-1.704 1.405,-3.652 0.388,-5.486 -0.977,-1.762 -2.518,-2.693 -4.456,-2.693 -0.25,0 -0.508,0.015 -0.774,0.046 v -6.032 h 1.726 l 6.746,-10e-4 c 0.4,0 1.463,0 1.941,-1.034 0.501,-1.083 -0.242,-1.889 -0.486,-2.154 -0.616,-0.669 -0.587,-1.585 0.071,-2.228 0.301,-0.293 0.698,-0.455 1.117,-0.455 0.406,0 0.792,0.153 1.087,0.431 0.671,0.635 0.701,1.562 0.071,2.256 -0.272,0.3 -0.996,1.098 -0.475,2.161 0.505,1.03 1.56,1.03 1.906,1.03 1.428,-0.006 2.836,-0.007 4.244,-0.007 h 2.223 l 2.095,10e-4 0.001,2.5 C 0.253,-7.949 0.256,-5.041 0.236,-2.134 0.232,-1.421 0.152,-0.703 0,0"
             style="#white;;fill-opacity:1;fill-rule:nonzero;stroke:none"
             id="path36" />
        </g>
      </g>
    </g>
  </g>
</svg>
