<?xml version="1.0" encoding="UTF-8" standalone="no"?>
<!-- Created with Inkscape (http://www.inkscape.org/) -->

<svg
  version="1.1"
  id="svg2"
  xml:space="preserve"
  width="126.40613"
  height="126.406"
  viewBox="0 0 126.40613 126.406"
  sodipodidocname="Rurak.ai"
  xmlnsinkscape="http://www.inkscape.org/namespaces/inkscape"
  xmlnssodipodi="http://sodipodi.sourceforge.net/DTD/sodipodi-0.dtd"
  xmlns="http://www.w3.org/2000/svg"
  xmlnssvg="http://www.w3.org/2000/svg"><defs
     id="defs6"><clipPath
       clipPathUnits="userSpaceOnUse"
       id="clipPath16"><path
         d="M 0,94.805 H 94.805 V 0 H 0 Z"
         id="path14" /></clipPath></defs><sodipodiNamedview
     id="namedview4"
     pagecolor="#ffffff"
     bordercolor="#666666"
     borderopacity="1.0"
     inkscapepageshadow="2"
     inkscapepageopacity="0.0"
     inkscapepagecheckerboard="0" /><g
     id="g8"
     inkscapegroupmode="layer"
     inkscapelabel="Rurak"
     transform="matrix(1.3333333,0,0,-1.3333333,0,126.406)"><g
       id="g10"><g
         id="g12"
         clip-path="url(#clipPath16)"><g
           id="g18"
           transform="translate(72.7191,46.2249)"><path
             d="m 0,0 c -1.029,-1.975 0.496,-4.323 2.394,-4.862 2.121,-0.603 4.369,0.687 4.776,2.817 0.094,0.494 0.12,1.066 -0.037,1.53 C 6.341,1.82 4.936,3.813 3.366,6.085 2.168,3.928 1.036,1.989 0,0 m -42.278,4.39 c 2.474,-0.374 5.338,2.231 5.447,4.674 0.064,1.455 0.697,2.194 2.069,2.612 2.524,0.77 3.308,3.712 1.56,5.697 -0.641,0.729 -0.864,1.458 -0.686,2.431 0.433,2.363 -0.853,4.339 -3.142,4.993 -1.584,0.452 -1.989,0.992 -1.962,2.617 0.033,1.987 -1.084,3.738 -2.886,4.522 -1.813,0.789 -3.959,0.379 -5.352,-1.023 -1.381,-1.39 -1.766,-3.426 -0.995,-5.27 0.86,-2.057 0.228,-3.169 -1.964,-3.452 -2.67,-0.345 -4.708,-2.744 -4.62,-5.438 0.092,-2.773 2.262,-4.977 5.114,-5.194 1.805,-0.137 2.268,-0.605 2.443,-2.403 0.121,-1.244 0.377,-2.574 1.645,-3.397 0.755,-0.489 2.439,-1.235 3.329,-1.369 m 30.469,17.178 c -2.411,3.945 -6.011,4.023 -8.272,-0.005 -3.093,-5.51 -2.989,-11.16 -0.036,-16.745 0.226,-0.428 0.54,-0.82 0.861,-1.186 2.135,-2.428 4.655,-2.405 6.687,0.128 2.213,2.757 2.837,6.038 2.926,9.247 -0.056,3.174 -0.604,6.005 -2.166,8.561 M -46.28,1.206 c -2.278,1.196 -3.863,3.004 -4.635,5.454 -0.22,0.698 -0.562,0.983 -1.239,1.204 -3.784,1.233 -6.122,3.846 -6.653,7.781 -0.536,3.976 0.989,7.218 4.452,9.272 1.252,0.743 1.65,1.381 1.657,2.858 0.022,4.633 3.615,8.256 8.249,8.645 4.452,0.374 8.499,-2.688 9.416,-7.178 0.116,-0.571 0.325,-0.878 0.837,-1.159 3.043,-1.666 4.506,-4.285 4.566,-7.735 0.007,-0.429 0.116,-0.91 0.334,-1.273 2.304,-3.837 1.05,-8.577 -2.852,-10.81 -0.341,-0.195 -0.67,-0.618 -0.768,-0.996 -0.957,-3.696 -4.009,-6.448 -7.818,-6.987 -0.22,-0.032 -0.434,-0.104 -0.651,-0.157 6.035,-0.997 10.819,-4.003 14.479,-8.476 2.986,0.858 5.849,1.681 8.875,2.551 0,0.983 0.016,2.233 -0.02,3.481 -0.005,0.162 -0.248,0.393 -0.43,0.463 -2.373,0.911 -4.07,2.59 -5.312,4.742 -2.617,4.537 -3.09,9.432 -2.215,14.498 0.59,3.42 1.885,6.534 4.48,8.962 3.208,3.002 7.535,3.161 10.8,0.235 1.183,-1.06 2.244,-2.396 2.96,-3.81 2.774,-5.471 2.953,-11.183 0.991,-16.943 -1.175,-3.45 -3.161,-6.287 -6.724,-7.709 -0.176,-0.07 -0.387,-0.33 -0.392,-0.506 -0.035,-1.22 -0.018,-2.442 -0.018,-3.709 6.023,-0.638 11.054,-3.164 15.346,-7.608 0,1.532 -0.034,2.812 0.015,4.089 0.024,0.605 -0.211,0.849 -0.752,1.038 -3.665,1.284 -6.447,5.757 -4.459,10.295 1.429,3.261 3.437,6.142 5.64,8.899 C 2.717,11.665 4.25,11.657 5.093,10.6 7.294,7.842 9.29,4.956 10.728,1.697 12.688,-2.747 9.981,-7.278 6.245,-8.583 5.683,-8.78 5.509,-9.045 5.516,-9.631 c 0.033,-2.667 0.043,-5.336 0.003,-8.003 -0.022,-1.422 0.026,-2.8 0.716,-4.1 0.239,-0.45 0.361,-0.981 0.443,-1.49 0.2,-1.239 -0.75,-2.341 -1.981,-2.358 -1.023,-0.014 -1.683,0.613 -2.143,1.925 -2.445,6.972 -7.256,11.486 -14.455,13.032 -7.313,1.571 -13.628,-0.608 -18.706,-6.147 -1.762,-1.921 -2.989,-4.177 -3.806,-6.652 -0.289,-0.876 -0.786,-1.533 -1.756,-1.671 -1.622,-0.23 -2.726,1.215 -2.179,2.89 1.129,3.466 2.967,6.513 5.533,9.105 0.792,0.801 1.65,1.537 2.486,2.31 -0.046,0.091 -0.072,0.183 -0.129,0.249 -5.158,5.955 -12.723,8.391 -20.218,4.93 -6.596,-3.046 -10.034,-8.373 -10.404,-15.645 -0.064,-1.271 -0.573,-2.086 -1.542,-2.335 -1.452,-0.373 -2.638,0.683 -2.57,2.367 0.336,8.303 4.159,14.51 11.333,18.652 2.522,1.456 5.291,2.214 8.159,2.547 0.112,0.864 0.114,0.867 -0.58,1.231 m 43.845,41.475 c -22.921,12.637 -51.748,4.3 -64.385,-18.621 -12.638,-22.922 -4.301,-51.748 18.621,-64.386 22.921,-12.638 51.748,-4.301 64.386,18.621 12.637,22.922 4.3,51.748 -18.622,64.386"
             style="fill:#white;fill-opacity:1;fill-rule:nonzero;stroke:none"
             id="path20" /></g></g></g></g></svg>