<?xml version="1.0" encoding="UTF-8" standalone="no"?>
<!-- Created with Inkscape (http://www.inkscape.org/) -->

<svg
   version="1.1"
   id="svg2"
   xmlSpace="preserve"
   width="57.934132"
   height="57.934132"
   viewBox="0 0 57.934132 57.934132"
   xmlns="http://www.w3.org/2000/svg"
   xmlnssvg="http://www.w3.org/2000/svg"><defs
     id="defs6"><clipPath
       clipPathUnits="userSpaceOnUse"
       id="clipPath16"><path
         d="M 0,43.451 H 43.451 V 0 H 0 Z"
         id="path14" /></clipPath></defs><g
     id="g8"
     transform="matrix(1.3333333,0,0,-1.3333333,0,57.934133)"><g
       id="g10"><g
         id="g12"
         clip-path="url(#clipPath16)"><g
           id="g18"
           transform="translate(41.991,21.7249)"><path
             d="m 0,0 c 0,-11.192 -9.073,-20.266 -20.266,-20.266 -11.192,0 -20.265,9.074 -20.265,20.266 0,11.193 9.073,20.266 20.265,20.266 C -9.073,20.266 0,11.193 0,0"
             style="fill:#142e54;fill-opacity:1;fill-rule:nonzero;stroke:none"
             id="path20" /></g><g
           id="g30"
           transform="translate(18.4173,12.8733)"><path
             d="M 0,0 C -0.358,0 -0.665,0.27 -0.704,0.633 -0.745,1.009 -0.8,1.44 -0.858,1.896 c -0.37,2.917 -0.878,6.913 0.501,9.258 0.657,1.119 1.968,2.353 3.415,2.589 1.672,0.272 3.09,-0.036 4.213,-0.918 1.026,-0.805 2.309,-2.52 2.592,-6.12 0.112,-1.417 0.455,-2.312 1.08,-2.819 0.418,-0.338 0.998,-0.505 1.593,-0.457 0.574,0.045 1.153,0.28 1.674,0.678 0.448,0.341 0.902,0.919 1.383,1.532 1.264,1.608 2.838,3.609 5.727,3.255 0.389,-0.048 0.665,-0.402 0.618,-0.79 C 21.89,7.715 21.536,7.438 21.147,7.486 19.051,7.744 17.86,6.228 16.709,4.762 16.171,4.077 15.662,3.43 15.071,2.979 14.332,2.415 13.494,2.082 12.648,2.014 11.694,1.939 10.747,2.219 10.05,2.784 8.804,3.793 8.54,5.441 8.449,6.594 8.206,9.68 7.198,11.079 6.395,11.709 5.586,12.344 4.569,12.551 3.286,12.343 2.353,12.19 1.342,11.246 0.866,10.435 -0.268,8.507 0.224,4.636 0.55,2.075 0.609,1.612 0.664,1.175 0.706,0.786 0.748,0.396 0.467,0.046 0.077,0.004 0.051,0.001 0.025,0 0,0"
             style="fill:#ff9613;fill-opacity:1;fill-rule:nonzero;stroke:none"
             id="path32" /></g><g
           id="g34"
           transform="translate(20.8789,15.2985)"><path
             d="M 0,0 C -0.354,0 -0.66,0.264 -0.703,0.624 -0.954,2.698 -1.065,3.764 -0.848,5.341 -0.699,6.419 -0.043,7.79 1.317,8.11 2.827,8.466 3.997,7.672 4.527,5.932 4.755,5.184 4.725,4.152 4.701,3.323 4.695,3.086 4.688,2.863 4.689,2.679 4.691,2.288 4.374,1.969 3.982,1.967 H 3.979 C 3.589,1.967 3.272,2.283 3.27,2.673 3.269,2.88 3.276,3.115 3.283,3.364 3.304,4.089 3.33,4.992 3.169,5.519 2.723,6.984 1.965,6.805 1.642,6.729 1.027,6.584 0.649,5.808 0.558,5.148 0.364,3.742 0.463,2.797 0.705,0.795 0.752,0.406 0.475,0.052 0.086,0.005 0.057,0.002 0.028,0 0,0"
             style="fill:#ff9613;fill-opacity:1;fill-rule:nonzero;stroke:none"
             id="path36" /></g><g
           id="g38"
           transform="translate(31.2028,17.5442)"><path
             d="m 0,0 c -0.357,0 -0.715,0.098 -1.019,0.287 -0.664,0.412 -1.059,1.238 -1.055,2.209 10e-4,0.211 -0.002,0.499 -0.004,0.812 -0.006,0.632 -0.012,1.347 0.004,1.778 0.015,0.391 0.342,0.697 0.736,0.682 C -0.947,5.753 -0.641,5.424 -0.656,5.033 -0.671,4.635 -0.665,3.936 -0.66,3.32 -0.657,3 -0.654,2.706 -0.655,2.491 -0.657,2.03 -0.506,1.638 -0.271,1.492 -0.153,1.419 0.009,1.398 0.142,1.439 0.519,1.556 0.779,2.104 1.031,2.634 L 1.098,2.777 C 1.268,3.13 1.691,3.279 2.045,3.109 2.398,2.94 2.547,2.516 2.378,2.163 L 2.312,2.026 C 1.965,1.295 1.533,0.385 0.562,0.084 0.38,0.028 0.19,0 0,0"
             style="fill:#ff9613;fill-opacity:1;fill-rule:nonzero;stroke:none"
             id="path40" /></g><g
           id="g42"
           transform="translate(11.1762,30.0163)"><path
             d="m 0,0 v 0 c -0.447,0 -0.88,-0.123 -1.253,-0.357 l -0.003,-0.002 -0.003,-0.002 c -0.792,-0.501 -1.21,-1.429 -1.082,-2.385 -0.405,-0.768 -0.381,-1.741 0.129,-2.551 0.183,-0.29 0.416,-0.538 0.683,-0.732 0.075,-0.407 0.248,-0.8 0.512,-1.142 0.486,-0.631 1.238,-1.008 2.012,-1.008 0.114,0 0.228,0.008 0.341,0.025 0.477,-0.475 1.06,-0.744 1.647,-0.744 0.345,0 0.678,0.095 0.964,0.275 0.805,0.507 1.06,1.53 0.706,2.556 0.486,0.726 0.556,1.704 0.131,2.548 -0.194,0.385 -0.474,0.711 -0.808,0.955 -0.06,0.325 -0.183,0.642 -0.366,0.932 -0.473,0.752 -1.3,1.219 -2.158,1.219 -0.027,0 -0.055,0 -0.083,-0.001 C 0.957,-0.143 0.486,0 0,0 m 0,-1.419 c 0.212,0 0.431,-0.067 0.625,-0.205 0.108,-0.077 0.2,-0.168 0.275,-0.269 0.022,-0.03 0.056,-0.046 0.089,-0.046 0.016,0 0.031,0.003 0.046,0.01 0.131,0.066 0.274,0.097 0.417,0.097 0.363,0 0.734,-0.2 0.958,-0.556 C 2.603,-2.696 2.644,-3.052 2.551,-3.354 2.53,-3.421 2.578,-3.496 2.647,-3.506 2.994,-3.557 3.33,-3.788 3.517,-4.158 3.756,-4.631 3.655,-5.193 3.279,-5.487 3.256,-5.505 3.231,-5.523 3.207,-5.538 3.023,-5.656 2.976,-5.913 3.108,-6.118 3.112,-6.124 3.116,-6.13 3.12,-6.137 3.451,-6.663 3.483,-7.238 3.191,-7.422 3.13,-7.461 3.059,-7.479 2.983,-7.479 c -0.288,0 -0.659,0.261 -0.921,0.676 -0.004,0.007 -0.008,0.013 -0.011,0.019 -0.086,0.14 -0.229,0.217 -0.37,0.217 -0.068,0 -0.135,-0.018 -0.195,-0.055 C 1.461,-6.637 1.435,-6.652 1.408,-6.665 1.278,-6.729 1.137,-6.76 0.995,-6.76 c -0.327,0 -0.663,0.162 -0.888,0.455 -0.254,0.328 -0.316,0.731 -0.212,1.066 0.021,0.067 -0.026,0.143 -0.095,0.153 -0.314,0.046 -0.617,0.237 -0.811,0.545 -0.313,0.497 -0.228,1.12 0.181,1.438 0.039,0.031 0.052,0.088 0.026,0.137 -0.059,0.111 -0.101,0.234 -0.124,0.364 -0.074,0.431 0.103,0.837 0.428,1.043 0.149,0.093 0.322,0.14 0.5,0.14"
             style="fill:#009c49;fill-opacity:1;fill-rule:nonzero;stroke:none"
             id="path44" /></g><g
           id="g46"
           transform="translate(13.6558,17.7458)"><path
             d="m 0,0 c -0.05,0 -0.108,-0.012 -0.179,-0.046 -0.186,-0.086 -0.368,-0.284 -0.572,-0.621 -0.053,-0.087 -0.104,-0.176 -0.154,-0.264 -0.17,-0.296 -0.362,-0.631 -0.636,-0.93 -0.148,-0.162 -0.306,-0.298 -0.458,-0.43 -0.37,-0.321 -0.492,-0.455 -0.485,-0.62 0.009,-0.194 0.096,-0.264 0.161,-0.299 0.13,-0.07 0.356,-0.084 0.57,0.043 0.135,0.08 0.273,0.19 0.419,0.306 0.138,0.11 0.281,0.223 0.443,0.331 0.242,0.161 0.485,0.282 0.721,0.399 0.161,0.08 0.313,0.156 0.451,0.238 0.278,0.165 0.457,0.344 0.505,0.505 0.014,0.049 0.025,0.19 -0.024,0.409 v 0 C 0.671,-0.576 0.4,-0.162 0.145,-0.037 0.103,-0.017 0.058,0 0,0 m -2.093,-4.749 c -0.326,0 -0.648,0.077 -0.935,0.232 -0.568,0.306 -0.91,0.868 -0.94,1.541 -0.04,0.91 0.559,1.429 0.997,1.808 0.126,0.109 0.244,0.212 0.335,0.311 0.162,0.176 0.298,0.413 0.442,0.664 0.057,0.099 0.114,0.199 0.173,0.296 0.229,0.378 0.604,0.913 1.214,1.198 C -0.278,1.547 0.292,1.545 0.799,1.296 1.606,0.901 2.064,0 2.211,-0.651 2.278,-0.95 2.333,-1.394 2.21,-1.81 2.051,-2.346 1.657,-2.804 1.039,-3.17 0.854,-3.28 0.67,-3.372 0.492,-3.461 0.288,-3.562 0.095,-3.658 -0.068,-3.767 -0.179,-3.84 -0.291,-3.929 -0.41,-4.024 -0.58,-4.159 -0.773,-4.312 -0.994,-4.444 -1.335,-4.646 -1.717,-4.749 -2.093,-4.749"
             style="fill:#ff7879;fill-opacity:1;fill-rule:nonzero;stroke:none"
             id="path48" /></g><g
           id="g50"
           transform="translate(23.3106,10.1973)"><path
             d="m 0,0 h -13.974 c -1.245,0 -2.257,0.936 -2.257,2.086 v 6.34 c 0,1.15 1.012,2.085 2.257,2.085 0.392,0 0.71,-0.318 0.71,-0.709 0,-0.392 -0.318,-0.71 -0.71,-0.71 -0.454,0 -0.838,-0.305 -0.838,-0.666 v -6.34 c 0,-0.362 0.384,-0.667 0.838,-0.667 L 0,1.419 c 0.454,0 0.838,0.305 0.838,0.667 v 3.456 c 0,0.392 0.318,0.709 0.71,0.709 0.392,0 0.709,-0.317 0.709,-0.709 V 2.086 C 2.257,0.936 1.245,0 0,0"
             style="fill:#ffffff;fill-opacity:1;fill-rule:nonzero;stroke:none"
             id="path52" /></g><g
           id="g54"
           transform="translate(22.7312,33.5474)"><path
             d="m 0,0 v 0 c -0.575,0 -1.116,-0.305 -1.412,-0.796 -0.905,-1.5 -0.524,-3.416 0.886,-4.457 0.585,-0.433 1.278,-0.661 2.004,-0.661 0.961,0 1.878,0.41 2.517,1.124 0.308,0.344 0.457,0.806 0.41,1.266 -0.047,0.462 -0.289,0.885 -0.662,1.161 l -2.761,2.04 C 0.696,-0.112 0.356,0 0,0 m 0,-1.485 c 0.035,0 0.07,-0.011 0.1,-0.033 l 2.76,-2.04 C 2.938,-3.615 2.952,-3.728 2.888,-3.8 2.519,-4.212 2.002,-4.429 1.478,-4.429 c -0.39,0 -0.783,0.121 -1.121,0.37 -0.792,0.585 -0.995,1.67 -0.497,2.496 0.031,0.051 0.085,0.078 0.14,0.078"
             style="fill:#ff4a32;fill-opacity:1;fill-rule:nonzero;stroke:none"
             id="path56" /></g><g
           id="g58"
           transform="translate(18.1685,33.9822)"><path
             d="m 0,0 c -0.014,0 -0.029,0 -0.044,-0.001 l -3.471,-0.234 c -0.75,-0.05 -1.045,-1.274 -0.467,-1.939 l 3.779,-4.355 c 0.174,-0.201 0.375,-0.29 0.569,-0.29 0.45,0 0.862,0.48 0.816,1.173 L 0.873,-1.058 C 0.833,-0.462 0.447,0 0,0 m -0.522,-1.456 0.185,-2.754 -2.269,2.614 z"
             style="fill:#ffcf1c;fill-opacity:1;fill-rule:nonzero;stroke:none"
             id="path60" /></g></g></g></g></svg>
