<?xml version="1.0" encoding="UTF-8" standalone="no"?>
<!-- Created with Inkscape (http://www.inkscape.org/) -->

<svg
   version="1.1"
   id="svg2"
   xmlSpace="preserve"
   width="126.40613"
   height="126.4096"
   viewBox="0 0 126.40613 126.4096"
   xmlns="http://www.w3.org/2000/svg"
   xmlnssvg="http://www.w3.org/2000/svg"><defs
     id="defs6"><clipPath
       clipPathUnits="userSpaceOnUse"
       id="clipPath20"><path
         d="M 0,94.807 H 94.805 V 0 H 0 Z"
         id="path18" /></clipPath></defs><g
     id="g8"
     transform="matrix(1.3333333,0,0,-1.3333333,0,126.4096)"><g
       id="g10"
       transform="translate(38.9254,69.8501)"><path
         d="M 0,0 -4.331,-0.291 0.385,-5.723 Z"
         style="fill:#142e54;fill-opacity:1;fill-rule:nonzero;stroke:none"
         id="path12" /></g><g
       id="g14"><g
         id="g16"
         clip-path="url(#clipPath20)">
         <circle cx="47" cy="47" r="46" fill="white"/><g
           id="g22"
           transform="translate(23.3785,55.1974)"><path
             d="m 0,0 c 0.403,-0.64 1.033,-1.037 1.685,-1.133 0.144,-0.02 0.241,-0.178 0.198,-0.318 -0.216,-0.696 -0.087,-1.533 0.44,-2.215 0.468,-0.609 1.166,-0.945 1.846,-0.945 0.295,0 0.588,0.064 0.858,0.197 0.056,0.027 0.11,0.058 0.162,0.089 0.125,0.077 0.264,0.115 0.405,0.115 0.293,0 0.59,-0.16 0.769,-0.451 0.006,-0.013 0.015,-0.025 0.023,-0.04 0.544,-0.862 1.316,-1.405 1.914,-1.405 0.158,0 0.306,0.038 0.432,0.119 0.607,0.382 0.54,1.577 -0.147,2.67 -0.009,0.015 -0.017,0.027 -0.025,0.04 -0.274,0.426 -0.177,0.96 0.206,1.205 0.049,0.031 0.101,0.069 0.149,0.106 0.782,0.611 0.991,1.779 0.495,2.762 C 9.021,1.565 8.323,2.045 7.602,2.151 7.458,2.172 7.359,2.327 7.402,2.467 7.596,3.094 7.51,3.834 7.109,4.474 6.644,5.214 5.873,5.63 5.118,5.63 4.821,5.63 4.524,5.565 4.252,5.428 4.221,5.413 4.189,5.407 4.156,5.407 4.088,5.407 4.017,5.441 3.971,5.503 3.815,5.713 3.624,5.902 3.4,6.062 2.996,6.349 2.541,6.488 2.101,6.488 1.731,6.488 1.371,6.39 1.062,6.197 0.387,5.769 0.019,4.925 0.173,4.029 0.22,3.759 0.307,3.504 0.43,3.273 0.484,3.171 0.457,3.053 0.376,2.988 -0.474,2.327 -0.65,1.033 0,0"
             style="fill:#185EA1;fill-opacity:1;fill-rule:nonzero;stroke:none"
             id="path24" /></g><g
           id="g26"
           transform="translate(84.4735,44.5657)"><path
             d="m 0,0 c -4.356,0.536 -6.831,-2.614 -9.223,-5.661 -1.118,-1.423 -2.176,-2.768 -3.404,-3.705 -1.535,-1.172 -3.277,-1.864 -5.035,-2.006 -1.983,-0.155 -3.951,0.427 -5.399,1.601 -2.589,2.096 -3.138,5.521 -3.327,7.917 -0.505,6.413 -2.6,9.321 -4.268,10.63 -1.682,1.32 -3.795,1.75 -6.461,1.317 -1.939,-0.317 -4.04,-2.279 -5.029,-3.965 -2.357,-4.006 -1.335,-12.051 -0.657,-17.373 0.122,-0.962 0.237,-1.87 0.324,-2.679 0.087,-0.81 -0.497,-1.537 -1.307,-1.625 -0.054,-0.006 -0.108,-0.008 -0.16,-0.008 -0.744,0 -1.382,0.561 -1.463,1.316 -0.085,0.781 -0.2,1.677 -0.32,2.624 -0.769,6.062 -1.825,14.366 1.041,19.24 1.365,2.325 4.09,4.889 7.097,5.38 3.474,0.565 6.421,-0.075 8.755,-1.908 2.132,-1.673 4.798,-5.237 5.386,-12.718 0.233,-2.945 0.946,-4.805 2.245,-5.858 0.868,-0.703 2.074,-1.05 3.31,-0.95 1.193,0.094 2.397,0.582 3.479,1.409 0.931,0.709 1.874,1.91 2.874,3.184 2.627,3.341 5.898,7.5 11.901,6.764 C 1.168,2.826 1.742,2.091 1.644,1.284 1.544,0.476 0.808,-0.1 0,0 m -29.061,-3.611 c -0.013,-0.493 -0.028,-0.956 -0.025,-1.339 0.004,-0.812 -0.655,-1.475 -1.47,-1.479 h -0.006 c -0.81,0 -1.469,0.656 -1.473,1.467 -0.002,0.43 0.012,0.918 0.027,1.436 0.044,1.506 0.098,3.383 -0.237,4.478 -0.927,3.045 -2.502,2.673 -3.173,2.515 -1.278,-0.302 -2.064,-1.914 -2.253,-3.286 -0.403,-2.922 -0.197,-4.885 0.305,-9.046 0.098,-0.808 -0.477,-1.544 -1.286,-1.642 -0.06,-0.006 -0.12,-0.01 -0.179,-0.01 -0.735,0 -1.371,0.549 -1.46,1.297 -0.522,4.31 -0.753,6.525 -0.302,9.802 0.31,2.241 1.673,5.09 4.499,5.755 3.138,0.739 5.57,-0.911 6.671,-4.526 0.474,-1.555 0.412,-3.7 0.362,-5.422 m -0.026,-13.172 c 0,-2.39 -2.103,-4.335 -4.69,-4.335 h -29.04 c -2.587,0 -4.691,1.945 -4.691,4.335 v 13.175 c 0,2.39 2.104,4.333 4.691,4.333 0.815,0 1.475,-0.661 1.475,-1.473 0,-0.815 -0.66,-1.476 -1.475,-1.476 -0.943,0 -1.742,-0.633 -1.742,-1.384 v -13.175 c 0,-0.752 0.799,-1.386 1.742,-1.386 h 29.04 c 0.943,0 1.741,0.634 1.741,1.386 v 7.182 c 0,0.815 0.661,1.473 1.476,1.473 0.814,0 1.473,-0.658 1.473,-1.473 z m -20.162,7.59 c -0.33,-1.113 -1.149,-2.065 -2.433,-2.826 -0.384,-0.228 -0.767,-0.42 -1.137,-0.605 -0.424,-0.209 -0.825,-0.409 -1.163,-0.636 -0.231,-0.151 -0.464,-0.336 -0.711,-0.534 -0.353,-0.28 -0.755,-0.598 -1.214,-0.872 -0.709,-0.42 -1.502,-0.634 -2.284,-0.634 -0.677,0 -1.346,0.16 -1.943,0.482 -1.18,0.636 -1.891,1.804 -1.953,3.202 -0.083,1.891 1.161,2.97 2.072,3.758 0.261,0.226 0.507,0.44 0.696,0.646 0.337,0.366 0.619,0.858 0.919,1.38 0.118,0.206 0.236,0.413 0.359,0.615 0.476,0.785 1.255,1.897 2.523,2.489 1.099,0.512 2.284,0.508 3.337,-0.01 1.677,-0.821 2.629,-2.693 2.935,-4.046 0.139,-0.621 0.253,-1.544 -0.003,-2.409 m -14.61,23.555 c -0.266,1.987 0.603,3.915 2.248,4.956 l 0.007,0.005 0.006,0.004 c 0.775,0.486 1.675,0.742 2.604,0.742 1.01,0 1.989,-0.298 2.845,-0.861 0.058,0.002 0.116,0.002 0.172,0.002 1.784,0 3.502,-0.97 4.485,-2.533 0.38,-0.603 0.636,-1.261 0.761,-1.937 0.694,-0.507 1.275,-1.184 1.679,-1.984 0.883,-1.754 0.737,-3.787 -0.272,-5.295 0.735,-2.133 0.205,-4.259 -1.468,-5.312 -0.594,-0.374 -1.286,-0.572 -2.003,-0.572 -1.22,0 -2.431,0.559 -3.423,1.546 -0.234,-0.035 -0.471,-0.051 -0.708,-0.051 -1.609,0 -3.172,0.783 -4.182,2.094 -0.548,0.711 -0.908,1.528 -1.064,2.373 -0.554,0.404 -1.039,0.919 -1.419,1.522 -1.06,1.683 -1.11,3.705 -0.268,5.301 m 12.091,13.46 7.213,0.486 c 0.032,0.002 0.063,0.002 0.092,0.002 0.929,0 1.731,-0.96 1.814,-2.198 l 0.642,-9.535 c 0.096,-1.44 -0.76,-2.438 -1.696,-2.438 -0.403,0 -0.82,0.185 -1.182,0.603 l -7.853,9.05 c -1.201,1.382 -0.588,3.926 0.97,4.03 m 13.853,-2.07 c 0.614,1.021 1.739,1.655 2.934,1.655 0.74,0 1.446,-0.233 2.04,-0.672 l 5.738,-4.239 c 0.775,-0.574 1.278,-1.453 1.376,-2.413 0.098,-0.956 -0.212,-1.916 -0.852,-2.631 -1.328,-1.483 -3.234,-2.335 -5.231,-2.335 -1.509,0 -2.949,0.473 -4.164,1.373 -2.931,2.164 -3.722,6.145 -1.841,9.262 M -21.686,4.719 c 0.031,0.813 0.711,1.449 1.529,1.418 0.813,-0.032 1.449,-0.715 1.418,-1.528 -0.032,-0.827 -0.019,-2.28 -0.009,-3.56 0.007,-0.665 0.013,-1.276 0.011,-1.723 -0.004,-0.958 0.309,-1.772 0.798,-2.075 0.245,-0.152 0.582,-0.196 0.858,-0.111 0.783,0.243 1.324,1.382 1.847,2.484 l 0.139,0.297 c 0.354,0.733 1.233,1.043 1.968,0.69 0.734,-0.351 1.044,-1.233 0.692,-1.966 l -0.137,-0.285 c -0.721,-1.519 -1.618,-3.41 -3.636,-4.036 -0.378,-0.116 -0.773,-0.174 -1.168,-0.174 -0.742,0 -1.486,0.204 -2.118,0.596 -1.38,0.856 -2.201,2.573 -2.192,4.591 0.002,0.438 -0.004,1.037 -0.009,1.687 -0.012,1.314 -0.025,2.8 0.009,3.695 m -15.387,45.523 c -26.178,0 -47.401,-21.223 -47.401,-47.404 0,-26.179 21.223,-47.404 47.401,-47.404 26.182,0 47.404,21.225 47.404,47.404 0,26.181 -21.222,47.404 -47.404,47.404"
             style="fill:#185EA1;fill-opacity:1;fill-rule:nonzero;stroke:none"
             id="path28" /></g><g
           id="g30"
           transform="translate(30.9335,39.0575)"><path
             d="m 0,0 c -0.087,0.042 -0.181,0.077 -0.301,0.077 -0.104,0 -0.225,-0.025 -0.372,-0.096 -0.387,-0.178 -0.765,-0.59 -1.189,-1.29 -0.11,-0.181 -0.216,-0.366 -0.32,-0.549 -0.353,-0.615 -0.752,-1.311 -1.322,-1.932 -0.307,-0.337 -0.636,-0.62 -0.951,-0.894 -0.769,-0.667 -1.023,-0.946 -1.008,-1.288 0.019,-0.404 0.199,-0.549 0.334,-0.622 0.271,-0.145 0.74,-0.174 1.185,0.09 0.28,0.166 0.567,0.394 0.87,0.635 0.287,0.229 0.584,0.464 0.921,0.688 0.503,0.335 1.008,0.586 1.499,0.829 0.334,0.167 0.65,0.325 0.937,0.495 0.577,0.343 0.949,0.715 1.049,1.05 0.029,0.101 0.052,0.394 -0.05,0.849 C 1.093,-1.12 0.53,-0.26 0,0"
             style="fill:#185EA1;fill-opacity:1;fill-rule:nonzero;stroke:none"
             id="path32" /></g><g
           id="g34"
           transform="translate(50.2341,63.5371)"><path
             d="m 0,0 c 0.702,-0.517 1.519,-0.769 2.33,-0.769 1.089,0 2.163,0.451 2.93,1.307 0.133,0.15 0.104,0.385 -0.058,0.503 l -5.736,4.24 C -0.596,5.326 -0.669,5.349 -0.742,5.349 -0.856,5.349 -0.968,5.293 -1.033,5.187 -2.068,3.471 -1.646,1.216 0,0"
             style="fill:#185EA1;fill-opacity:1;fill-rule:nonzero;stroke:none"
             id="path36" /></g></g></g></g></svg>
