<?xml version="1.0" encoding="UTF-8" standalone="no"?>
<!-- Created with Inkscape (http://www.inkscape.org/) -->

<svg
   version="1.1"
   id="noodle-5"
   xmlSpace="preserve"
   width="370.06534"
   height="253.15067"
   viewBox="0 0 370.06534 253.15067"
   xmlns="http://www.w3.org/2000/svg"
   xmlnssvg="http://www.w3.org/2000/svg"><defs
     id="defs6"><clipPath
       clipPathUnits="userSpaceOnUse"
       id="clipPath16"><path
         d="M 0,189.863 H 277.549 V 0 H 0 Z"
         id="path14" /></clipPath></defs><sodipodiNamedview
     id="namedview4"
     pagecolor="#ffffff"
     bordercolor="#666666"
     borderopacity="1.0"
     inkscapepageshadow="2"
     inkscapepageopacity="0.0"
     inkscapepagecheckerboard="0" /><g
     id="g8"
     transform="matrix(1.3333333,0,0,-1.3333333,0,253.15067)"><g
       id="g10"><g
         id="g12"
         ><g
           id="g18"
           transform="translate(272.5456,125.6573)"><path
             d="M 0,0 C -0.348,0.029 -0.696,0.071 -1.044,0.102 -1.776,0.168 0.27,-0.123 -0.969,0.1 -1.644,0.222 -2.314,0.352 -2.978,0.523 -3.533,0.665 -4.083,0.829 -4.625,1.017 -4.905,1.113 -5.179,1.224 -5.457,1.325 -6.136,1.572 -4.17,0.736 -5.356,1.295 -6.401,1.788 -7.343,2.401 -8.3,3.042 -8.94,3.471 -7.304,2.199 -8.007,2.817 -8.208,2.993 -8.418,3.16 -8.618,3.338 c -0.423,0.377 -0.828,0.775 -1.214,1.189 -0.361,0.388 -0.667,0.846 -1.041,1.216 -0.02,0.019 0.815,-1.118 0.415,-0.534 -0.057,0.083 -0.121,0.161 -0.178,0.244 -0.173,0.25 -0.35,0.495 -0.517,0.748 -0.624,0.945 -1.177,1.936 -1.67,2.954 -0.106,0.221 -0.21,0.443 -0.312,0.666 -0.058,0.128 -0.112,0.258 -0.172,0.386 -0.312,0.663 0.261,-0.629 0.254,-0.608 -0.179,0.577 -0.452,1.137 -0.656,1.707 -0.409,1.147 -0.764,2.312 -1.08,3.488 -0.64,2.384 -1.12,4.809 -1.523,7.243 -0.215,1.291 -0.407,2.586 -0.587,3.882 -0.038,0.276 -0.071,0.554 -0.113,0.83 0.267,-1.738 0.076,-0.563 0.021,-0.143 -0.089,0.672 -0.174,1.345 -0.26,2.017 -0.671,5.295 -1.237,10.639 -2.432,15.849 -1.093,4.761 -2.841,9.383 -5.955,13.195 -3.303,4.043 -8.141,6.016 -13.24,6.46 -7.98,0.695 -15.037,-3.267 -19.14,-10.024 -4.353,-7.167 -5.605,-16.004 -6.417,-24.191 -0.998,-10.052 -0.958,-20.192 -0.886,-30.282 0.077,-10.831 0.309,-21.669 -0.041,-32.498 -0.161,-4.991 -0.445,-9.984 -0.999,-14.948 -0.065,-0.582 -0.134,-1.163 -0.207,-1.743 -0.032,-0.251 -0.067,-0.502 -0.097,-0.754 0.225,1.875 0.067,0.502 0.002,0.051 -0.16,-1.109 -0.336,-2.217 -0.534,-3.321 -0.379,-2.121 -0.833,-4.231 -1.396,-6.312 -0.519,-1.918 -1.141,-3.801 -1.868,-5.65 -0.165,-0.417 -0.607,-1.233 0.17,0.391 -0.086,-0.181 -0.159,-0.369 -0.241,-0.552 -0.196,-0.438 -0.4,-0.872 -0.613,-1.302 -0.388,-0.783 -0.807,-1.551 -1.26,-2.298 -0.451,-0.743 -0.956,-1.441 -1.454,-2.151 0.887,1.264 0.437,0.547 -0.031,-0.006 -0.276,-0.326 -0.561,-0.644 -0.857,-0.952 -0.567,-0.593 -1.176,-1.126 -1.796,-1.66 -0.72,-0.62 0.89,0.635 0.432,0.33 -0.142,-0.095 -0.276,-0.203 -0.416,-0.302 -0.34,-0.239 -0.689,-0.467 -1.045,-0.682 -0.682,-0.412 -1.406,-0.716 -2.106,-1.086 1.751,0.925 0.477,0.202 -0.072,0.012 -0.412,-0.143 -0.83,-0.27 -1.252,-0.384 -0.38,-0.103 -0.764,-0.194 -1.15,-0.273 -0.33,-0.068 -1.919,-0.308 -0.773,-0.154 1.116,0.151 -0.409,-0.031 -0.753,-0.055 -0.491,-0.035 -0.984,-0.055 -1.476,-0.059 -0.531,-0.004 -1.058,0.025 -1.587,0.059 -1.13,0.07 0.409,-0.081 0.315,-0.059 -0.289,0.069 -0.592,0.099 -0.883,0.162 -0.508,0.11 -1.011,0.247 -1.504,0.411 -0.242,0.08 -0.479,0.178 -0.72,0.261 -0.687,0.238 1.261,-0.602 0.321,-0.126 -0.947,0.48 -1.79,1.044 -2.673,1.625 -0.107,0.071 1.075,-0.896 0.261,-0.182 -0.17,0.149 -0.343,0.295 -0.51,0.447 -0.438,0.398 -0.856,0.817 -1.257,1.251 -0.343,0.372 -0.66,0.764 -0.99,1.146 -0.668,0.774 0.752,-1.036 0.15,-0.199 -0.184,0.255 -0.372,0.506 -0.552,0.763 -0.661,0.946 -1.269,1.929 -1.837,2.933 -0.615,1.089 -1.183,2.205 -1.718,3.336 -0.25,0.53 -0.494,1.064 -0.731,1.601 -0.128,0.29 -0.252,0.582 -0.379,0.873 -0.287,0.658 0.517,-1.252 -0.006,0.024 -2.044,4.98 -3.69,10.11 -5.511,15.172 -3.395,9.441 -7.589,20.862 -17.764,24.769 -4.933,1.894 -11.024,1.272 -15.598,-1.305 -4.613,-2.599 -7.378,-7.343 -8.801,-12.303 -1.509,-5.261 -1.779,-10.901 -1.89,-16.345 -0.114,-5.61 0.045,-11.225 -0.192,-16.833 -0.056,-1.309 -0.133,-2.617 -0.248,-3.921 -0.052,-0.591 -0.111,-1.181 -0.179,-1.77 -0.018,-0.154 -0.039,-0.308 -0.056,-0.463 -0.086,-0.773 0.09,0.652 0.088,0.642 -0.082,-0.367 -0.109,-0.753 -0.17,-1.125 -0.188,-1.146 -0.421,-2.286 -0.722,-3.408 -0.142,-0.532 -0.299,-1.06 -0.475,-1.581 -0.075,-0.222 -0.153,-0.443 -0.235,-0.663 -0.046,-0.124 -0.098,-0.246 -0.142,-0.371 -0.266,-0.753 0.18,0.449 0.243,0.561 -0.511,-0.905 -0.922,-1.836 -1.487,-2.717 -0.442,-0.69 -0.01,0.034 0.299,0.354 -0.164,-0.17 -0.302,-0.374 -0.459,-0.552 -0.337,-0.381 -0.704,-0.722 -1.075,-1.069 -0.762,-0.713 0.427,0.29 0.316,0.223 -0.204,-0.123 -0.393,-0.28 -0.594,-0.409 -0.442,-0.283 -0.908,-0.507 -1.372,-0.75 -0.665,-0.348 1.282,0.451 0.405,0.176 -0.249,-0.078 -0.491,-0.175 -0.74,-0.252 -0.758,-0.232 -1.537,-0.401 -2.315,-0.544 -0.208,-0.038 -0.417,-0.069 -0.625,-0.106 -0.484,-0.086 -0.488,0.164 0.425,0.057 -0.354,0.041 -0.789,-0.077 -1.149,-0.096 -0.708,-0.036 -1.407,-0.013 -2.113,0.027 -1.256,0.073 0.902,-0.202 0.126,-0.024 -0.3,0.069 -0.603,0.118 -0.902,0.195 -0.287,0.073 -0.572,0.158 -0.852,0.253 -0.136,0.047 -0.271,0.105 -0.408,0.148 -0.734,0.23 0.993,-0.506 0.508,-0.213 -0.444,0.268 -0.924,0.468 -1.363,0.751 -0.222,0.143 -0.437,0.346 -0.671,0.465 1.251,-0.636 0.612,-0.488 0.146,-0.075 -0.407,0.36 -0.791,0.745 -1.158,1.146 -0.162,0.177 -0.32,0.357 -0.474,0.539 -0.328,0.388 -0.864,1.388 0.008,-0.041 -1.168,1.917 -2.489,3.773 -3.688,5.678 -1.375,2.184 -2.874,4.393 -4.757,6.172 -4.521,4.274 -11.373,5.959 -17.343,3.948 -5.586,-1.88 -8.874,-6.45 -10.767,-11.825 -1.711,-4.858 -2.22,-10.091 -2.92,-15.164 -0.37,-2.679 -0.758,-5.36 -1.316,-8.008 -0.269,-1.281 -0.578,-2.554 -0.953,-3.808 -0.165,-0.549 -0.341,-1.094 -0.533,-1.634 -0.101,-0.282 -0.205,-0.562 -0.315,-0.841 -0.054,-0.138 -0.114,-0.273 -0.165,-0.412 -0.182,-0.498 0.581,1.265 0.2,0.487 -0.5,-1.022 -0.997,-2.028 -1.639,-2.972 -0.153,-0.225 -0.342,-0.437 -0.481,-0.669 0.798,1.333 0.466,0.596 0.137,0.221 -0.382,-0.434 -0.797,-0.823 -1.217,-1.219 -0.073,-0.069 -0.158,-0.127 -0.23,-0.198 -0.495,-0.48 0.533,0.402 0.534,0.403 -0.233,-0.119 -0.448,-0.327 -0.669,-0.472 -0.499,-0.327 -1.023,-0.589 -1.551,-0.863 -0.917,-0.476 1.195,0.415 0.195,0.089 -0.283,-0.093 -0.561,-0.196 -0.847,-0.281 -0.511,-0.152 -1.534,-0.15 -1.95,-0.437 0.027,0.018 1.371,0.124 0.63,0.085 -0.114,-0.006 -0.229,-0.023 -0.343,-0.032 -0.303,-0.025 -0.606,-0.039 -0.91,-0.044 -0.645,-0.009 -1.289,0.109 -1.928,0.104 0.002,0 1.395,-0.239 0.651,-0.082 -0.149,0.032 -0.302,0.052 -0.452,0.081 -0.302,0.058 -0.602,0.125 -0.901,0.199 -0.606,0.151 -1.205,0.334 -1.794,0.541 -0.301,0.105 -0.595,0.226 -0.894,0.335 -0.719,0.261 0.507,-0.215 0.525,-0.226 -0.134,0.079 -0.302,0.13 -0.445,0.197 -0.635,0.298 -1.265,0.603 -1.884,0.935 -1.205,0.646 -2.373,1.36 -3.515,2.111 -4.735,3.112 -9.014,6.869 -13.791,9.918 -4.743,3.027 -10.367,5.33 -16.056,3.893 -6.862,-1.734 -11.165,-8.365 -13.946,-14.388 -1.094,-2.369 -0.75,-5.497 1.794,-6.841 2.204,-1.164 5.67,-0.741 6.841,1.794 0.833,1.804 1.743,3.575 2.822,5.245 0.231,0.358 0.47,0.712 0.717,1.059 0.069,0.096 0.316,0.357 0.361,0.493 -0.216,-0.653 -0.577,-0.712 -0.239,-0.316 0.497,0.585 0.995,1.162 1.551,1.694 0.239,0.228 0.49,0.44 0.737,0.66 0.752,0.671 -0.853,-0.544 -0.177,-0.137 0.53,0.32 1.048,0.642 1.591,0.942 0.873,0.482 -1.192,-0.367 -0.25,-0.109 0.256,0.07 0.504,0.168 0.761,0.236 0.221,0.058 0.451,0.088 0.669,0.151 0.658,0.192 -0.762,-0.09 -0.753,-0.09 0.182,-0.006 0.396,0.042 0.578,0.053 0.49,0.03 0.968,-0.013 1.456,-0.018 0.996,-0.009 -1.335,0.263 -0.351,0.056 0.296,-0.062 0.592,-0.111 0.886,-0.181 0.537,-0.129 1.066,-0.292 1.587,-0.477 0.235,-0.084 0.464,-0.182 0.699,-0.266 0.548,-0.196 -1.121,0.505 -0.593,0.25 0.165,-0.079 0.336,-0.15 0.503,-0.228 2.362,-1.106 4.547,-2.569 6.663,-4.084 9.179,-6.569 19.383,-16.293 31.7,-12.751 11.869,3.413 14.436,16.329 15.908,26.943 0.701,5.055 1.204,10.255 2.851,15.113 0.091,0.267 0.185,0.531 0.283,0.795 0.074,0.196 0.497,1.223 0.092,0.265 -0.378,-0.895 -0.026,-0.076 0.076,0.141 0.14,0.297 0.287,0.591 0.443,0.881 0.228,0.421 0.473,0.832 0.74,1.229 0.121,0.18 0.736,0.995 0.1,0.174 -0.625,-0.804 0.026,0.012 0.195,0.199 0.306,0.338 0.644,0.633 0.973,0.945 0.673,0.639 -1.094,-0.711 -0.299,-0.23 0.233,0.141 0.452,0.304 0.688,0.441 0.213,0.123 0.433,0.23 0.651,0.344 0.924,0.489 -0.899,-0.289 -0.328,-0.137 0.51,0.136 0.997,0.323 1.516,0.432 0.133,0.027 0.273,0.044 0.405,0.076 0.701,0.174 -0.71,-0.087 -0.701,-0.087 0.302,-0.004 0.628,0.062 0.931,0.079 0.742,0.041 1.473,0.008 2.214,-0.034 1.041,-0.059 -1.057,0.237 -0.261,0.038 0.295,-0.074 0.598,-0.117 0.893,-0.192 0.284,-0.073 0.566,-0.157 0.843,-0.252 0.136,-0.046 0.268,-0.101 0.404,-0.147 0.726,-0.244 -0.981,0.528 -0.515,0.214 0.42,-0.283 0.919,-0.469 1.349,-0.747 0.222,-0.144 0.433,-0.34 0.665,-0.464 -1.359,0.73 -0.521,0.41 -0.079,0.009 0.376,-0.34 0.732,-0.701 1.073,-1.076 0.16,-0.177 0.317,-0.356 0.471,-0.539 0.087,-0.104 0.171,-0.215 0.261,-0.317 0.564,-0.64 -0.77,1.058 -0.275,0.36 2.787,-3.928 4.909,-8.523 8.461,-11.854 5.151,-4.831 12.093,-5.601 18.741,-3.821 5.039,1.349 9.064,4.989 11.165,9.729 2.256,5.091 2.928,10.627 3.214,16.149 0.288,5.551 0.14,11.114 0.219,16.67 0.038,2.68 0.122,5.362 0.353,8.033 0.055,0.634 0.118,1.268 0.192,1.9 0.049,0.414 0.276,1.594 -0.031,-0.171 0.059,0.339 0.099,0.682 0.153,1.022 0.188,1.16 0.419,2.314 0.718,3.45 0.142,0.54 0.298,1.075 0.473,1.605 0.181,0.547 1.049,2.303 0.17,0.594 0.469,0.911 0.868,1.83 1.442,2.687 0.134,0.201 0.309,0.393 0.426,0.603 0.021,0.037 -0.899,-1.077 -0.444,-0.58 0.081,0.089 0.156,0.188 0.234,0.279 0.316,0.365 0.654,0.713 1.012,1.037 0.176,0.16 0.388,0.299 0.551,0.47 0.027,0.028 -1.145,-0.807 -0.577,-0.451 0.102,0.064 0.2,0.142 0.3,0.209 0.411,0.278 0.84,0.528 1.283,0.75 0.112,0.056 0.232,0.105 0.342,0.165 0.6,0.328 -0.688,-0.28 -0.664,-0.274 0.247,0.057 0.496,0.191 0.738,0.272 0.553,0.186 1.119,0.334 1.692,0.449 0.235,0.048 0.519,0.055 0.746,0.132 -1.328,-0.451 -0.88,-0.104 -0.259,-0.051 0.571,0.05 1.144,0.069 1.716,0.054 0.768,-0.021 2.009,-0.332 0.38,0.025 0.508,-0.111 1.017,-0.189 1.519,-0.333 0.325,-0.093 1.711,-0.633 0.752,-0.222 -0.976,0.419 -0.07,0.022 0.13,-0.077 0.238,-0.118 0.473,-0.243 0.704,-0.375 0.387,-0.222 0.756,-0.47 1.124,-0.721 0.878,-0.598 -0.42,0.356 -0.294,0.238 0.199,-0.186 0.423,-0.35 0.626,-0.531 0.753,-0.673 1.423,-1.418 2.074,-2.188 0.711,-0.84 -0.619,0.859 -0.178,0.24 0.155,-0.217 0.316,-0.429 0.47,-0.646 0.333,-0.474 0.652,-0.959 0.958,-1.451 0.604,-0.971 1.159,-1.972 1.678,-2.99 0.567,-1.109 1.091,-2.239 1.587,-3.381 0.087,-0.2 0.493,-1.151 0.115,-0.261 -0.393,0.924 0.08,-0.203 0.153,-0.383 0.256,-0.627 0.505,-1.258 0.748,-1.89 0.947,-2.456 1.818,-4.941 2.685,-7.427 1.867,-5.353 3.721,-10.724 6.12,-15.868 2.046,-4.388 4.685,-8.86 8.426,-12.017 4.142,-3.495 9.135,-5.334 14.589,-5.047 4.148,0.218 8.286,1.263 11.831,3.485 3.415,2.14 6.162,5.115 8.294,8.516 4.722,7.533 6.365,16.673 7.44,25.351 1.265,10.213 1.38,20.551 1.361,30.829 -0.02,10.7 -0.29,21.402 -0.101,32.102 0.087,4.918 0.27,9.838 0.698,14.738 0.097,1.118 0.208,2.234 0.335,3.349 0.058,0.509 0.121,1.016 0.185,1.524 0.143,1.142 -0.071,-0.498 -0.046,-0.33 0.046,0.296 0.084,0.592 0.127,0.888 0.301,2.029 0.668,4.051 1.138,6.048 0.425,1.808 0.933,3.599 1.569,5.345 0.137,0.376 0.284,0.749 0.43,1.122 0.379,0.966 -0.313,-0.711 -0.202,-0.47 0.097,0.21 0.186,0.425 0.283,0.635 0.331,0.723 0.692,1.432 1.087,2.122 0.377,0.657 0.793,1.283 1.225,1.903 0.486,0.699 -0.14,-0.207 -0.37,-0.464 0.12,0.134 0.225,0.284 0.34,0.422 0.242,0.291 0.493,0.574 0.754,0.847 0.483,0.507 1.015,0.942 1.536,1.406 -1.127,-1.005 -0.737,-0.544 -0.131,-0.138 0.301,0.203 0.611,0.393 0.928,0.57 0.3,0.168 0.61,0.312 0.916,0.467 0.752,0.379 -0.498,-0.23 -0.659,-0.271 0.205,0.052 0.409,0.162 0.61,0.233 0.675,0.239 1.368,0.424 2.071,0.558 0.181,0.035 0.365,0.059 0.546,0.095 0.69,0.135 -1.585,-0.164 -0.63,-0.087 0.387,0.031 0.771,0.07 1.158,0.086 1.053,0.043 2.085,-0.114 3.13,-0.124 -1.617,0.015 -0.859,0.124 -0.326,0.026 0.257,-0.047 0.513,-0.1 0.768,-0.161 0.519,-0.122 1.031,-0.272 1.533,-0.453 0.209,-0.075 1.144,-0.456 0.162,-0.047 -0.921,0.383 -0.167,0.069 0.05,-0.046 0.437,-0.232 0.869,-0.465 1.284,-0.737 0.19,-0.124 0.371,-0.272 0.564,-0.392 0.151,-0.093 -1.115,0.946 -0.341,0.252 0.362,-0.324 0.721,-0.645 1.056,-0.998 0.298,-0.314 0.56,-0.655 0.848,-0.978 -1.112,1.247 -0.194,0.245 0.187,-0.349 0.526,-0.823 0.984,-1.688 1.39,-2.576 0.184,-0.404 0.447,-1.33 -0.126,0.322 0.084,-0.243 0.193,-0.479 0.285,-0.719 0.188,-0.493 0.362,-0.99 0.526,-1.491 0.712,-2.181 1.22,-4.425 1.64,-6.679 0.228,-1.224 0.428,-2.453 0.612,-3.684 0.086,-0.573 0.168,-1.146 0.248,-1.72 0.028,-0.202 0.192,-1.417 0.053,-0.379 -0.136,1.011 0.031,-0.247 0.065,-0.501 0.375,-2.887 0.728,-5.777 1.12,-8.662 1.322,-9.722 3.254,-20.94 10.966,-27.823 4.425,-3.95 9.844,-5.775 15.689,-6.267 2.613,-0.22 5.114,2.457 5,5 -0.13,2.897 -2.201,4.765 -5,5"
             style="fill:#f8962a;fill-opacity:1;fill-rule:nonzero;stroke:none"
             id="path20" /></g></g></g></g></svg>
