<?xml version="1.0" encoding="UTF-8" standalone="no"?>
<!-- Created with Inkscape (http://www.inkscape.org/) -->

<svg
   version="1.1"
   id="noodle-6"
   xmlSpace="preserve"
   width="347.58533"
   height="116.29653"
   viewBox="0 0 347.58533 116.29653"
   xmlns="http://www.w3.org/2000/svg"
   xmlnssvg="http://www.w3.org/2000/svg"><defs
     id="defs6"><clipPath
       clipPathUnits="userSpaceOnUse"
       id="clipPath16"><path
         d="M 0,87.222 H 260.689 V 0 H 0 Z"
         id="path14" /></clipPath></defs><g
     id="g8"
     transform="matrix(1.3333333,0,0,-1.3333333,0,116.29653)"><g
       id="g10"><g
         id="g12"
         clip-path="url(#clipPath16)"><g
           id="g18"
           transform="translate(3.6234,44.6893)"><path
             d="m 0,0 c 0.992,-0.214 1.974,-0.467 2.941,-0.775 0.476,-0.151 0.948,-0.314 1.415,-0.489 0.186,-0.069 0.371,-0.14 0.556,-0.212 1.302,-0.513 -0.627,0.307 0.172,-0.071 1.782,-0.842 3.507,-1.757 5.161,-2.832 0.826,-0.537 1.633,-1.101 2.425,-1.687 0.158,-0.117 0.315,-0.237 0.474,-0.355 0.83,-0.616 -0.722,0.591 -0.19,0.147 0.418,-0.349 0.853,-0.679 1.273,-1.027 1.577,-1.304 3.095,-2.677 4.584,-4.081 6.032,-5.685 11.653,-11.938 18.686,-16.439 7.052,-4.513 15.623,-6.534 23.879,-4.708 6.232,1.379 11.696,5.308 15.849,10.047 9.069,10.349 13.844,23.597 19.964,35.721 1.431,2.835 2.935,5.638 4.622,8.329 0.792,1.263 1.624,2.501 2.516,3.696 0.084,0.113 0.17,0.224 0.253,0.337 0.518,0.703 -0.822,-1.021 -0.269,-0.351 0.197,0.239 0.387,0.483 0.585,0.721 0.45,0.542 0.916,1.072 1.4,1.585 0.445,0.474 0.906,0.933 1.383,1.375 0.233,0.216 0.47,0.428 0.711,0.635 0.207,0.177 1.2,0.96 0.367,0.322 -0.817,-0.625 0.031,0.017 0.236,0.163 0.249,0.177 0.502,0.348 0.758,0.513 0.557,0.359 1.131,0.689 1.723,0.985 0.265,0.132 0.552,0.236 0.81,0.378 0.057,0.032 -1.345,-0.523 -0.7,-0.298 0.14,0.049 0.277,0.108 0.417,0.159 0.588,0.216 1.189,0.397 1.799,0.541 0.294,0.069 0.59,0.13 0.887,0.182 0.119,0.022 0.24,0.037 0.36,0.06 0.815,0.151 -1.431,-0.137 -0.6,-0.085 0.669,0.042 1.331,0.1 2.002,0.095 0.662,-0.005 1.311,-0.1 1.969,-0.128 -1.835,0.078 -0.707,0.098 -0.202,-0.003 0.366,-0.073 0.73,-0.159 1.09,-0.258 0.563,-0.155 1.096,-0.376 1.649,-0.557 0.556,-0.181 -1.309,0.604 -0.608,0.255 0.108,-0.053 0.22,-0.1 0.329,-0.153 0.327,-0.156 0.649,-0.324 0.965,-0.502 0.53,-0.299 1.042,-0.627 1.537,-0.979 0.1,-0.071 0.197,-0.147 0.297,-0.216 0.668,-0.463 -1.046,0.861 -0.427,0.33 0.235,-0.202 0.479,-0.395 0.712,-0.601 1.01,-0.891 1.934,-1.878 2.786,-2.921 0.084,-0.103 0.164,-0.208 0.249,-0.31 0.524,-0.626 -0.706,0.943 -0.352,0.459 0.18,-0.245 0.365,-0.487 0.542,-0.733 0.444,-0.617 0.868,-1.248 1.275,-1.889 0.773,-1.216 1.485,-2.468 2.158,-3.741 0.721,-1.366 1.395,-2.757 2.039,-4.16 0.307,-0.668 0.606,-1.338 0.901,-2.011 0.156,-0.358 0.311,-0.716 0.464,-1.075 0.093,-0.215 0.178,-0.436 0.277,-0.649 -0.171,0.37 -0.475,1.136 -0.138,0.325 2.564,-6.18 4.873,-12.48 7.759,-18.521 2.46,-5.15 5.525,-10.452 10.057,-14.052 2.435,-1.934 5.161,-3.496 8.239,-4.141 3.856,-0.808 7.922,-0.526 11.716,0.484 7.31,1.944 12.63,7.171 16.445,13.495 1.56,2.585 2.886,5.3 4.316,7.957 0.696,1.293 1.416,2.575 2.21,3.812 0.374,0.583 0.771,1.148 1.174,1.711 0.664,0.927 -0.734,-0.883 -0.097,-0.126 0.238,0.282 0.472,0.567 0.719,0.841 0.443,0.491 0.911,0.96 1.406,1.399 0.381,0.338 1.363,0.846 -0.099,-0.031 0.308,0.184 0.587,0.428 0.89,0.622 0.537,0.347 1.101,0.618 1.664,0.917 0.756,0.402 -1.26,-0.455 -0.441,-0.183 0.131,0.043 0.26,0.099 0.39,0.145 0.401,0.142 0.809,0.266 1.221,0.372 0.358,0.091 0.72,0.158 1.081,0.233 1.195,0.25 -1.147,-0.081 -0.069,-0.006 0.801,0.056 1.598,0.113 2.401,0.075 0.243,-0.011 0.494,-0.06 0.735,-0.061 -1.751,0.004 -1.049,0.16 -0.477,0.035 0.488,-0.106 0.94,-0.3 1.418,-0.43 -0.047,0.013 -1.35,0.652 -0.487,0.191 0.208,-0.111 0.419,-0.215 0.623,-0.333 0.206,-0.12 0.408,-0.247 0.605,-0.379 0.1,-0.068 0.196,-0.141 0.296,-0.207 0.712,-0.472 -1.034,0.874 -0.49,0.383 0.769,-0.694 1.488,-1.383 2.166,-2.17 0.81,-0.939 -0.514,0.73 -0.176,0.244 0.159,-0.229 0.331,-0.449 0.491,-0.678 0.331,-0.474 0.646,-0.959 0.948,-1.453 0.679,-1.109 1.292,-2.258 1.867,-3.425 0.59,-1.201 1.129,-2.424 1.663,-3.651 0.335,-0.769 -0.455,1.092 -0.221,0.524 0.067,-0.161 0.135,-0.322 0.202,-0.484 0.135,-0.326 0.268,-0.652 0.4,-0.979 0.27,-0.665 0.534,-1.332 0.796,-2 1.114,-2.843 2.179,-5.704 3.302,-8.543 4.542,-11.474 10.6,-24.875 23.627,-28.457 3.174,-0.872 6.566,-1.081 9.83,-0.704 2.589,0.299 5.131,2.086 5,5 -0.11,2.452 -2.217,5.321 -5,5 -1.62,-0.187 -3.252,-0.247 -4.878,-0.111 -0.264,0.022 -1.46,0.168 -0.409,0.029 1.046,-0.138 -0.12,0.03 -0.379,0.08 -0.739,0.14 -1.469,0.323 -2.186,0.549 -0.318,0.101 -0.633,0.21 -0.946,0.327 -0.124,0.047 -0.246,0.099 -0.37,0.144 -0.798,0.288 1.225,-0.572 0.467,-0.195 -0.586,0.291 -1.174,0.566 -1.741,0.894 -0.562,0.326 -1.108,0.681 -1.636,1.06 -0.106,0.075 -0.209,0.156 -0.315,0.23 -0.687,0.48 1.03,-0.849 0.393,-0.303 -0.274,0.235 -0.556,0.458 -0.826,0.697 -1.025,0.905 -1.97,1.899 -2.844,2.95 -0.217,0.261 -0.415,0.543 -0.641,0.796 -0.02,0.022 0.829,-1.107 0.406,-0.521 -0.101,0.14 -0.206,0.277 -0.308,0.416 -0.432,0.593 -0.846,1.199 -1.244,1.816 -1.624,2.511 -2.99,5.182 -4.228,7.902 -0.28,0.615 -0.553,1.233 -0.821,1.853 -0.09,0.207 -0.171,0.419 -0.267,0.623 0.646,-1.376 0.372,-0.888 0.24,-0.568 -0.173,0.419 -0.349,0.837 -0.52,1.257 -0.571,1.398 -1.122,2.805 -1.667,4.214 -1.085,2.809 -2.138,5.631 -3.272,8.42 -2.146,5.278 -4.437,10.737 -8.397,14.949 -1.885,2.004 -4.189,3.511 -6.79,4.401 -3.066,1.049 -6.704,0.805 -9.799,0.061 -6.705,-1.612 -11.193,-6.937 -14.438,-12.695 -1.492,-2.646 -2.81,-5.387 -4.309,-8.029 -0.738,-1.301 -1.518,-2.58 -2.378,-3.804 -0.213,-0.303 -0.456,-0.593 -0.657,-0.903 0.945,1.452 0.231,0.3 -0.049,-0.036 -0.498,-0.6 -1.023,-1.179 -1.577,-1.728 -0.507,-0.502 -1.05,-0.952 -1.584,-1.424 -0.678,-0.598 1.049,0.733 0.295,0.228 -0.126,-0.084 -0.246,-0.179 -0.37,-0.265 -0.378,-0.265 -0.765,-0.516 -1.161,-0.752 -0.651,-0.388 -1.329,-0.696 -2.003,-1.036 -0.568,-0.287 1.276,0.463 0.403,0.173 -0.157,-0.052 -0.311,-0.12 -0.467,-0.176 -0.48,-0.174 -0.968,-0.33 -1.461,-0.468 -0.875,-0.244 -1.761,-0.415 -2.656,-0.567 -0.409,-0.069 -0.677,0.095 0.476,0.063 -0.284,0.008 -0.597,-0.064 -0.881,-0.088 -0.47,-0.04 -0.942,-0.069 -1.414,-0.082 -0.634,-0.018 -1.261,0.018 -1.893,0.058 -1.157,0.074 1.368,-0.257 0.244,-0.036 -0.35,0.069 -0.7,0.132 -1.047,0.219 -0.513,0.128 -1.007,0.297 -1.506,0.468 -1.047,0.359 1.208,-0.576 0.233,-0.103 -0.312,0.151 -0.624,0.301 -0.928,0.469 -0.51,0.28 -1.004,0.59 -1.48,0.925 -0.096,0.068 -0.189,0.14 -0.286,0.206 -0.634,0.432 0.953,-0.785 0.519,-0.405 -0.246,0.216 -0.509,0.414 -0.755,0.631 -0.957,0.843 -1.804,1.783 -2.626,2.756 -0.804,0.952 0.54,-0.745 0.124,-0.175 -0.194,0.266 -0.393,0.527 -0.583,0.795 -0.43,0.605 -0.84,1.223 -1.234,1.852 -1.542,2.457 -2.842,5.06 -4.043,7.697 -0.317,0.697 -0.627,1.398 -0.931,2.1 -0.154,0.356 -0.305,0.712 -0.458,1.069 -0.301,0.702 0.231,-0.548 0.231,-0.549 -0.11,0.292 -0.242,0.578 -0.361,0.866 -0.606,1.46 -1.196,2.925 -1.785,4.392 -2.456,6.123 -4.82,12.359 -8.075,18.114 -2.899,5.127 -6.794,10.273 -12.163,12.992 -6.022,3.049 -12.958,3.058 -19.057,0.241 C 101.518,37.925 97.416,33.018 94.141,28.107 86.744,17.018 82.537,4.139 75.784,-7.322 c -0.808,-1.371 -1.651,-2.721 -2.543,-4.039 -0.433,-0.64 -0.878,-1.273 -1.336,-1.896 -0.261,-0.355 -1.201,-1.378 -0.044,-0.081 -0.273,-0.307 -0.512,-0.651 -0.773,-0.969 -0.949,-1.159 -1.955,-2.273 -3.031,-3.315 -0.483,-0.469 -0.981,-0.923 -1.493,-1.36 -0.239,-0.204 -0.487,-0.398 -0.727,-0.601 -0.664,-0.562 1.059,0.773 0.353,0.271 -0.169,-0.12 -0.333,-0.247 -0.502,-0.367 -1.111,-0.794 -2.285,-1.502 -3.515,-2.096 -0.184,-0.088 -0.373,-0.166 -0.555,-0.258 -0.642,-0.321 0.659,0.27 0.633,0.262 -0.323,-0.1 -0.635,-0.255 -0.953,-0.369 -0.712,-0.256 -1.438,-0.474 -2.174,-0.652 -0.61,-0.148 -1.255,-0.201 -1.859,-0.362 1.702,0.455 0.591,0.075 0.047,0.026 -0.468,-0.041 -0.937,-0.067 -1.406,-0.08 -1.009,-0.029 -2.019,-0.001 -3.024,0.086 -0.196,0.017 -0.39,0.04 -0.586,0.057 -1.034,0.09 1.003,-0.187 0.319,-0.046 -0.515,0.105 -1.038,0.172 -1.552,0.283 -0.918,0.197 -1.825,0.446 -2.717,0.741 -0.44,0.147 -0.878,0.305 -1.31,0.473 -0.169,0.066 -0.344,0.151 -0.517,0.207 1.444,-0.464 0.411,-0.17 0.05,-0.002 -1.733,0.803 -3.385,1.77 -4.964,2.843 -0.39,0.265 -0.776,0.536 -1.157,0.814 -0.207,0.15 -1.309,0.998 -0.634,0.463 0.694,-0.55 -0.064,0.053 -0.171,0.138 -0.188,0.149 -0.374,0.3 -0.56,0.451 -0.411,0.335 -0.818,0.675 -1.221,1.019 -1.489,1.273 -2.927,2.605 -4.343,3.959 C 27.438,-5.908 21.642,0.359 14.421,4.807 10.814,7.028 6.806,8.75 2.658,9.643 0.108,10.192 -2.869,8.886 -3.492,6.151 -4.066,3.633 -2.734,0.589 0,0"
             style="fill:#f8962a;fill-opacity:1;fill-rule:nonzero;stroke:none"
             id="path20" /></g></g></g></g></svg>
