<?xml version="1.0" encoding="UTF-8" standalone="no"?>
<!-- Created with Inkscape (http://www.inkscape.org/) -->

<svg
   version="1.1"
   id="noodle-4"
   xmlSpace="preserve"
   width="306.69733"
   height="147.23866"
   viewBox="0 0 306.69733 147.23866"
   xmlns="http://www.w3.org/2000/svg"
   xmlnssvg="http://www.w3.org/2000/svg"><defs
     id="defs6"><clipPath
       clipPathUnits="userSpaceOnUse"
       id="clipPath16"><path
         d="M 0,110.429 H 230.023 V 0 H 0 Z"
         id="path14" /></clipPath></defs><g
       id="g10"><g
         id="g12"
         clip-path="url(#clipPath16)"><g
           id="g18"
           transform="translate(8.4911,83.5142)"><path
             d="m 0,0 c 2.683,3.368 5.534,6.62 8.752,9.49 0.692,0.617 1.41,1.2 2.125,1.788 0.542,0.445 -0.71,-0.519 -0.144,-0.112 0.197,0.141 0.389,0.289 0.585,0.431 0.438,0.317 0.882,0.626 1.333,0.924 0.792,0.523 1.604,1.017 2.436,1.475 0.412,0.227 0.83,0.444 1.252,0.653 0.21,0.104 0.422,0.205 0.635,0.304 0.146,0.068 1.083,0.487 0.367,0.174 -0.689,-0.301 0.71,0.267 0.874,0.326 0.386,0.139 0.775,0.27 1.168,0.393 1.017,0.316 2.052,0.574 3.099,0.77 0.236,0.045 0.473,0.082 0.709,0.124 0.514,0.089 0.448,-0.167 -0.252,-0.028 0.354,-0.071 0.924,0.096 1.278,0.122 0.98,0.071 1.963,0.09 2.945,0.063 0.659,-0.017 1.317,-0.054 1.973,-0.111 0.318,-0.028 0.636,-0.07 0.955,-0.098 0.748,-0.066 -1.418,0.221 -0.05,-10e-4 1.224,-0.199 2.434,-0.475 3.62,-0.836 0.519,-0.158 1.033,-0.332 1.541,-0.522 0.267,-0.1 0.53,-0.21 0.796,-0.312 0.543,-0.209 -1.131,0.505 -0.609,0.254 0.159,-0.076 0.322,-0.143 0.481,-0.218 1.04,-0.483 2.046,-1.038 3.013,-1.654 0.436,-0.277 0.863,-0.568 1.282,-0.869 0.223,-0.161 0.439,-0.333 0.663,-0.493 -1.449,1.031 -0.389,0.296 -0.045,0.008 0.849,-0.71 1.659,-1.467 2.43,-2.262 0.808,-0.832 1.573,-1.705 2.301,-2.608 0.155,-0.193 0.301,-0.397 0.463,-0.585 -1.094,1.27 -0.389,0.502 -0.134,0.157 0.387,-0.523 0.762,-1.054 1.127,-1.592 1.358,-1.997 2.577,-4.086 3.708,-6.219 4.761,-8.975 7.999,-18.657 12.582,-27.716 4.602,-9.097 10.867,-17.425 20.608,-21.286 5.857,-2.323 12.484,-2.274 18.63,-1.425 5.721,0.789 11.28,2.927 15.893,6.43 4.409,3.347 7.842,7.433 11.2,11.797 0.709,0.921 1.413,1.845 2.119,2.768 0.471,0.616 -0.846,-1.084 -0.141,-0.184 0.15,0.191 0.299,0.383 0.45,0.574 0.363,0.462 0.73,0.921 1.103,1.375 1.417,1.728 2.915,3.398 4.588,4.885 0.375,0.334 0.768,0.646 1.151,0.971 0.432,0.366 -0.995,-0.745 -0.537,-0.412 0.109,0.079 0.214,0.161 0.322,0.241 0.244,0.179 0.491,0.353 0.741,0.523 0.93,0.631 1.906,1.195 2.922,1.678 0.216,0.102 0.458,0.184 0.666,0.303 -1.368,-0.782 -0.691,-0.287 -0.212,-0.107 0.613,0.23 1.237,0.432 1.868,0.606 0.549,0.15 1.103,0.28 1.661,0.389 0.308,0.061 0.618,0.109 0.927,0.163 1.002,0.173 -1.278,-0.118 -0.006,-0.009 1.447,0.125 2.888,0.175 4.34,0.112 0.607,-0.027 1.21,-0.092 1.816,-0.13 0.612,-0.039 -1.501,0.249 -0.465,0.062 0.28,-0.051 0.56,-0.097 0.839,-0.157 0.871,-0.186 1.681,-0.499 2.527,-0.761 0.547,-0.169 -1.339,0.63 -0.452,0.189 0.192,-0.095 0.388,-0.181 0.579,-0.278 0.405,-0.204 0.8,-0.426 1.187,-0.664 0.341,-0.21 0.669,-0.438 1,-0.665 0.088,-0.06 0.17,-0.131 0.259,-0.189 0.544,-0.356 -0.689,0.545 -0.628,0.488 0.195,-0.184 0.422,-0.34 0.626,-0.515 0.668,-0.573 1.297,-1.191 1.89,-1.842 0.305,-0.334 0.6,-0.676 0.887,-1.026 0.145,-0.177 0.281,-0.364 0.43,-0.538 0.05,-0.06 -0.861,1.153 -0.466,0.598 0.085,-0.119 0.175,-0.234 0.261,-0.352 0.564,-0.773 1.094,-1.572 1.596,-2.386 1.088,-1.764 2.048,-3.605 2.94,-5.474 0.48,-1.004 0.939,-2.017 1.386,-3.036 0.222,-0.506 0.439,-1.013 0.656,-1.521 0.412,-0.963 -0.501,1.202 -0.097,0.23 0.121,-0.292 0.243,-0.584 0.364,-0.876 3.756,-9.082 7.023,-18.566 12.538,-26.779 6.04,-8.994 14.707,-15.853 25.579,-17.744 3.216,-0.559 6.461,-0.824 9.724,-0.747 2.612,0.061 5.122,2.256 5,5 -0.119,2.656 -2.199,5.066 -5,5 -1.548,-0.037 -3.096,-0.01 -4.641,0.106 -0.355,0.027 -0.71,0.058 -1.065,0.094 -0.193,0.02 -1.509,0.191 -0.506,0.048 1.002,-0.143 -0.289,0.048 -0.479,0.079 -0.373,0.061 -0.745,0.127 -1.115,0.199 -1.305,0.256 -2.596,0.583 -3.861,0.99 -0.553,0.177 -1.1,0.369 -1.642,0.577 -0.283,0.108 -0.562,0.235 -0.847,0.338 1.646,-0.597 0.369,-0.149 -0.041,0.043 -1.062,0.499 -2.096,1.059 -3.094,1.676 -0.49,0.303 -0.972,0.62 -1.444,0.95 -0.234,0.164 -0.465,0.333 -0.697,0.501 -0.953,0.69 0.821,-0.672 0.08,-0.065 -1.815,1.488 -3.49,3.11 -5.008,4.903 -0.345,0.407 -0.666,0.835 -1.011,1.241 1.092,-1.283 0.385,-0.501 0.131,-0.161 -0.214,0.287 -0.425,0.576 -0.632,0.867 -0.669,0.939 -1.304,1.901 -1.911,2.881 -1.269,2.048 -2.412,4.172 -3.474,6.335 -1.073,2.187 -2.02,4.425 -3.009,6.65 -0.007,0.015 0.534,-1.277 0.247,-0.584 -0.043,0.102 -0.086,0.204 -0.128,0.306 -0.114,0.271 -0.226,0.543 -0.339,0.815 -0.238,0.576 -0.474,1.153 -0.709,1.73 -0.453,1.112 -0.9,2.226 -1.349,3.34 -3.341,8.297 -6.614,17.587 -13.226,23.936 -3.063,2.941 -6.965,5.212 -11.197,5.893 -6.195,0.996 -12.509,0.323 -18.207,-2.353 -4.334,-2.035 -7.942,-5.452 -10.976,-9.097 -1.677,-2.014 -3.249,-4.115 -4.842,-6.196 -0.171,-0.225 -0.344,-0.449 -0.516,-0.673 -0.385,-0.504 0.825,1.057 0.131,0.17 -0.395,-0.505 -0.79,-1.01 -1.192,-1.509 -0.719,-0.894 -1.455,-1.774 -2.219,-2.631 -0.794,-0.892 -1.619,-1.758 -2.481,-2.585 -0.423,-0.405 -0.854,-0.801 -1.296,-1.186 -0.194,-0.169 -0.39,-0.337 -0.589,-0.502 -0.341,-0.284 -1.451,-1.039 -0.031,-0.051 -1,-0.695 -1.965,-1.416 -3.017,-2.035 -0.54,-0.318 -1.092,-0.618 -1.652,-0.9 -0.286,-0.143 -0.574,-0.282 -0.865,-0.416 -0.147,-0.068 -0.297,-0.131 -0.443,-0.2 -0.859,-0.402 1.187,0.449 0.287,0.123 -1.302,-0.471 -2.589,-0.93 -3.934,-1.266 -0.716,-0.178 -1.438,-0.332 -2.164,-0.462 -0.378,-0.068 -0.756,-0.126 -1.135,-0.186 -0.384,-0.061 -0.756,0.064 0.454,0.061 -0.245,0 -0.502,-0.059 -0.746,-0.084 -1.761,-0.183 -3.534,-0.246 -5.304,-0.218 -0.736,0.012 -1.471,0.036 -2.205,0.092 -0.304,0.023 -0.607,0.056 -0.91,0.084 -1.158,0.105 0.978,-0.171 0.219,-0.035 -1.166,0.21 -2.318,0.429 -3.455,0.769 -0.529,0.158 -1.051,0.334 -1.567,0.528 -0.197,0.074 -1.212,0.493 -0.254,0.088 0.944,-0.399 -0.11,0.058 -0.325,0.16 -0.991,0.469 -1.949,1.008 -2.867,1.608 -0.444,0.29 -0.868,0.603 -1.3,0.91 -0.76,0.539 0.891,-0.732 0.305,-0.235 -0.253,0.214 -0.514,0.419 -0.766,0.636 -0.811,0.699 -1.583,1.445 -2.316,2.226 -0.373,0.396 -0.735,0.802 -1.088,1.215 -0.178,0.209 -0.354,0.419 -0.528,0.632 -0.156,0.191 -0.86,1.091 -0.253,0.305 0.622,-0.808 -0.056,0.079 -0.176,0.242 -0.167,0.225 -0.332,0.452 -0.494,0.681 -0.349,0.49 -0.688,0.987 -1.019,1.49 -0.656,0.997 -1.277,2.016 -1.871,3.05 C 68.891,-18.759 65.641,-9.061 61.272,0.08 56.956,9.11 51.17,18.328 42.044,23.129 36.826,25.874 30.847,27.152 24.959,26.878 15.927,26.458 8.014,22.289 1.402,16.31 -1.703,13.503 -4.466,10.341 -7.071,7.071 -8.697,5.029 -9.214,1.967 -7.071,0 -5.26,-1.662 -1.74,-2.185 0,0"
             style="fill:#f8962a;fill-opacity:1;fill-rule:nonzero;stroke:none"
             id="path20" /></g></g></g></svg>
